<svg width="84" height="50" viewBox="0 0 84 50" fill="none" xmlns="http://www.w3.org/2000/svg">
<g filter="url(#filter0_f_7825_76157)">
<path fill-rule="evenodd" clip-rule="evenodd" d="M76.5755 36.8495C76.9432 37.9525 75.8953 39.0003 74.7934 38.6337L62.8398 34.649C61.6306 34.2464 61.5336 32.5738 62.6886 32.0336L67.6582 29.7159L69.9761 24.7466C70.5152 23.5916 72.189 23.6886 72.5917 24.8977L76.5755 36.8495Z" fill="url(#paint0_linear_7825_76157)"/>
<path fill-rule="evenodd" clip-rule="evenodd" d="M76.5755 36.8495C76.9432 37.9525 75.8953 39.0003 74.7934 38.6337L62.8398 34.649C61.6306 34.2464 61.5336 32.5738 62.6886 32.0336L67.6582 29.7159L69.9761 24.7466C70.5152 23.5916 72.189 23.6886 72.5917 24.8977L76.5755 36.8495Z" fill="#00C4FF"/>
<path d="M76.2569 36.9557L76.2569 36.9557L72.2731 25.0039L72.2731 25.0038C71.9663 24.0826 70.6911 24.0089 70.2804 24.8885C70.2804 24.8885 70.2803 24.8886 70.2803 24.8886L67.9625 29.8578L67.9109 29.9685L67.8001 30.0202L62.8309 32.3377C62.8308 32.3378 62.8307 32.3378 62.8306 32.3379C61.9506 32.7498 62.025 34.0238 62.9459 34.3305L62.946 34.3305L74.8993 38.3151C74.8994 38.3151 74.8994 38.3151 74.8994 38.3151C75.7388 38.5943 76.5371 37.7963 76.2569 36.9557Z" stroke="white" stroke-width="0.671596"/>
</g>
<g filter="url(#filter1_d_7825_76157)">
<path fill-rule="evenodd" clip-rule="evenodd" d="M76.5755 36.8495C76.9432 37.9525 75.8953 39.0003 74.7934 38.6337L62.8398 34.649C61.6306 34.2464 61.5336 32.5738 62.6886 32.0336L67.6582 29.7159L69.9761 24.7466C70.5152 23.5916 72.189 23.6886 72.5917 24.8977L76.5755 36.8495Z" fill="url(#paint1_linear_7825_76157)"/>
<path fill-rule="evenodd" clip-rule="evenodd" d="M76.5755 36.8495C76.9432 37.9525 75.8953 39.0003 74.7934 38.6337L62.8398 34.649C61.6306 34.2464 61.5336 32.5738 62.6886 32.0336L67.6582 29.7159L69.9761 24.7466C70.5152 23.5916 72.189 23.6886 72.5917 24.8977L76.5755 36.8495Z" fill="url(#paint2_linear_7825_76157)"/>
<path d="M76.2569 36.9557L76.2569 36.9557L72.2731 25.0039L72.2731 25.0038C71.9663 24.0826 70.6911 24.0089 70.2804 24.8885C70.2804 24.8885 70.2803 24.8886 70.2803 24.8886L67.9625 29.8578L67.9109 29.9685L67.8001 30.0202L62.8309 32.3377C62.8308 32.3378 62.8307 32.3378 62.8306 32.3379C61.9506 32.7498 62.025 34.0238 62.9459 34.3305L62.946 34.3305L74.8993 38.3151C74.8994 38.3151 74.8994 38.3151 74.8994 38.3151C75.7388 38.5943 76.5371 37.7963 76.2569 36.9557Z" stroke="#09AEE0" stroke-width="0.671596"/>
</g>
<rect width="65.8759" height="29.5501" rx="14.7751" fill="#45E2F8"/>
<path d="M16.0418 20.1714L20.1049 9.82881H22.1587L26.1627 20.1714H24.2567L23.1929 17.2755H18.9525L17.8887 20.1714H16.0418ZM19.4696 15.8866H22.7054L21.0801 11.5132L19.4696 15.8866ZM27.1418 20.1714V9.57763L28.8114 9.28213V20.1714H27.1418ZM30.7019 20.1714V12.7691H32.3715V20.1714H30.7019ZM31.5441 11.262C31.2584 11.262 31.0122 11.1635 30.8053 10.9665C30.6083 10.7596 30.5098 10.5183 30.5098 10.2425C30.5098 9.95686 30.6083 9.71553 30.8053 9.51853C31.0122 9.31168 31.2584 9.20825 31.5441 9.20825C31.8298 9.20825 32.0711 9.31168 32.2681 9.51853C32.4749 9.71553 32.5784 9.95193 32.5784 10.2277C32.5784 10.5134 32.4749 10.7596 32.2681 10.9665C32.0711 11.1635 31.8298 11.262 31.5441 11.262ZM34.2916 20.1714V12.7691H35.9612V13.9806C36.2468 13.5374 36.5866 13.2074 36.9806 12.9907C37.3747 12.7641 37.813 12.6509 38.2956 12.6509C38.8078 12.6509 39.256 12.7641 39.6402 12.9907C40.0243 13.2074 40.3247 13.5127 40.5415 13.9067C40.768 14.3007 40.8813 14.7637 40.8813 15.2956V20.1714H39.1969V15.7684C39.1969 15.2266 39.0492 14.7982 38.7537 14.483C38.4582 14.1579 38.0642 13.9954 37.5717 13.9954C37.2368 13.9954 36.9314 14.0742 36.6556 14.2318C36.3896 14.3795 36.1582 14.6012 35.9612 14.8967V20.1714H34.2916ZM44.9892 20.3044C44.477 20.3044 44.019 20.2108 43.6151 20.0236C43.2211 19.8266 42.9109 19.5607 42.6843 19.2258C42.4676 18.881 42.3593 18.487 42.3593 18.0438C42.3593 17.6005 42.4725 17.2164 42.6991 16.8913C42.9355 16.5663 43.2655 16.3151 43.689 16.1378C44.1126 15.9605 44.6149 15.8718 45.1961 15.8718C45.5408 15.8718 45.8807 15.9112 46.2156 15.99C46.5505 16.059 46.8755 16.1772 47.1907 16.3446V15.5172C47.1907 15.0247 47.0479 14.6553 46.7622 14.4091C46.4864 14.1628 46.0629 14.0397 45.4916 14.0397C45.1862 14.0397 44.8562 14.089 44.5016 14.1875C44.1569 14.2761 43.7678 14.4189 43.3344 14.6159L42.7434 13.4044C43.8269 12.902 44.8513 12.6509 45.8166 12.6509C46.7819 12.6509 47.5256 12.8873 48.0477 13.3601C48.5796 13.823 48.8455 14.483 48.8455 15.3399V20.1714H47.1907V19.4031C46.8755 19.7084 46.5357 19.935 46.1712 20.0827C45.8068 20.2305 45.4128 20.3044 44.9892 20.3044ZM43.9254 18.0142C43.9254 18.359 44.0633 18.6298 44.3391 18.8269C44.6149 19.0239 44.9843 19.1224 45.4473 19.1224C45.7822 19.1224 46.0924 19.0731 46.3781 18.9746C46.6736 18.8663 46.9445 18.7087 47.1907 18.5018V17.305C46.9346 17.1868 46.6687 17.0982 46.3929 17.0391C46.1171 16.98 45.8166 16.9504 45.4916 16.9504C45.0089 16.9504 44.6248 17.044 44.3391 17.2311C44.0633 17.4183 43.9254 17.6793 43.9254 18.0142Z" fill="#34385C"/>
<defs>
<filter id="filter0_f_7825_76157" x="57.258" y="19.3159" width="24.0096" height="24.0096" filterUnits="userSpaceOnUse" color-interpolation-filters="sRGB">
<feFlood flood-opacity="0" result="BackgroundImageFix"/>
<feBlend mode="normal" in="SourceGraphic" in2="BackgroundImageFix" result="shape"/>
<feGaussianBlur stdDeviation="2.30861" result="effect1_foregroundBlur_7825_76157"/>
</filter>
<filter id="filter1_d_7825_76157" x="55.4111" y="22.0862" width="27.7034" height="27.7034" filterUnits="userSpaceOnUse" color-interpolation-filters="sRGB">
<feFlood flood-opacity="0" result="BackgroundImageFix"/>
<feColorMatrix in="SourceAlpha" type="matrix" values="0 0 0 0 0 0 0 0 0 0 0 0 0 0 0 0 0 0 127 0" result="hardAlpha"/>
<feOffset dy="4.61722"/>
<feGaussianBlur stdDeviation="3.23206"/>
<feComposite in2="hardAlpha" operator="out"/>
<feColorMatrix type="matrix" values="0 0 0 0 0 0 0 0 0 0 0 0 0 0 0 0 0 0 0.25 0"/>
<feBlend mode="normal" in2="BackgroundImageFix" result="effect1_dropShadow_7825_76157"/>
<feBlend mode="normal" in="SourceGraphic" in2="effect1_dropShadow_7825_76157" result="shape"/>
</filter>
<linearGradient id="paint0_linear_7825_76157" x1="76.6504" y1="31.3207" x2="61.8752" y2="31.3207" gradientUnits="userSpaceOnUse">
<stop stop-color="#221549"/>
<stop offset="1" stop-color="#6852AC"/>
</linearGradient>
<linearGradient id="paint1_linear_7825_76157" x1="76.6504" y1="31.3207" x2="61.8752" y2="31.3207" gradientUnits="userSpaceOnUse">
<stop stop-color="#221549"/>
<stop offset="1" stop-color="#6852AC"/>
</linearGradient>
<linearGradient id="paint2_linear_7825_76157" x1="78.4973" y1="38.7083" x2="41.7769" y2="27.2894" gradientUnits="userSpaceOnUse">
<stop stop-color="#21B8E6"/>
<stop offset="1" stop-color="#7424DC"/>
</linearGradient>
</defs>
</svg>
