<svg width="84" height="50" viewBox="0 0 84 50" fill="none" xmlns="http://www.w3.org/2000/svg">
<g filter="url(#filter0_f_7825_76137)">
<path fill-rule="evenodd" clip-rule="evenodd" d="M76.5755 36.8495C76.9432 37.9525 75.8953 39.0003 74.7934 38.6337L62.8398 34.649C61.6306 34.2464 61.5336 32.5738 62.6886 32.0336L67.6582 29.7159L69.9761 24.7466C70.5152 23.5916 72.189 23.6886 72.5917 24.8977L76.5755 36.8495Z" fill="url(#paint0_linear_7825_76137)"/>
<path fill-rule="evenodd" clip-rule="evenodd" d="M76.5755 36.8495C76.9432 37.9525 75.8953 39.0003 74.7934 38.6337L62.8398 34.649C61.6306 34.2464 61.5336 32.5738 62.6886 32.0336L67.6582 29.7159L69.9761 24.7466C70.5152 23.5916 72.189 23.6886 72.5917 24.8977L76.5755 36.8495Z" fill="#9F5FF2"/>
<path d="M76.2569 36.9557L76.2569 36.9557L72.2731 25.0039L72.2731 25.0038C71.9663 24.0826 70.6911 24.0089 70.2804 24.8885C70.2804 24.8885 70.2803 24.8886 70.2803 24.8886L67.9625 29.8578L67.9109 29.9685L67.8001 30.0202L62.8309 32.3377C62.8308 32.3378 62.8307 32.3378 62.8306 32.3379C61.9506 32.7498 62.025 34.0238 62.9459 34.3305L62.946 34.3305L74.8993 38.3151C74.8994 38.3151 74.8994 38.3151 74.8994 38.3151C75.7388 38.5943 76.5371 37.7963 76.2569 36.9557Z" stroke="white" stroke-width="0.671596"/>
</g>
<g filter="url(#filter1_d_7825_76137)">
<path fill-rule="evenodd" clip-rule="evenodd" d="M76.5755 36.8495C76.9432 37.9525 75.8953 39.0003 74.7934 38.6337L62.8398 34.649C61.6306 34.2464 61.5336 32.5738 62.6886 32.0336L67.6582 29.7159L69.9761 24.7466C70.5152 23.5916 72.189 23.6886 72.5917 24.8977L76.5755 36.8495Z" fill="url(#paint1_linear_7825_76137)"/>
<path fill-rule="evenodd" clip-rule="evenodd" d="M76.5755 36.8495C76.9432 37.9525 75.8953 39.0003 74.7934 38.6337L62.8398 34.649C61.6306 34.2464 61.5336 32.5738 62.6886 32.0336L67.6582 29.7159L69.9761 24.7466C70.5152 23.5916 72.189 23.6886 72.5917 24.8977L76.5755 36.8495Z" fill="url(#paint2_linear_7825_76137)"/>
<path d="M76.2569 36.9557L76.2569 36.9557L72.2731 25.0039L72.2731 25.0038C71.9663 24.0826 70.6911 24.0089 70.2804 24.8885C70.2804 24.8885 70.2803 24.8886 70.2803 24.8886L67.9625 29.8578L67.9109 29.9685L67.8001 30.0202L62.8309 32.3377C62.8308 32.3378 62.8307 32.3378 62.8306 32.3379C61.9506 32.7498 62.025 34.0238 62.9459 34.3305L62.946 34.3305L74.8993 38.3151C74.8994 38.3151 74.8994 38.3151 74.8994 38.3151C75.7388 38.5943 76.5371 37.7963 76.2569 36.9557Z" stroke="#A772EB" stroke-width="0.671596"/>
</g>
<rect width="65.8759" height="29.5501" rx="14.7751" fill="#C9A7FF"/>
<path d="M13.1672 20V9.65742H14.9402V14.0013H20.082V9.65742H21.855V20H20.082V15.5822H14.9402V20H13.1672ZM27.3527 20.1478C26.6435 20.1478 26.0033 19.9803 25.432 19.6454C24.8607 19.3006 24.4076 18.8426 24.0727 18.2713C23.7377 17.6902 23.5703 17.0351 23.5703 16.3062C23.5703 15.5773 23.7279 14.9272 24.0431 14.3559C24.3583 13.7846 24.7868 13.3315 25.3285 12.9966C25.8801 12.6518 26.4908 12.4795 27.1607 12.4795C27.8502 12.4795 28.4559 12.6469 28.978 12.9818C29.5099 13.3167 29.9236 13.7698 30.2191 14.3411C30.5245 14.9124 30.6771 15.5675 30.6771 16.3062V16.7051H25.2103C25.2694 17.109 25.3975 17.4685 25.5945 17.7837C25.8013 18.0891 26.0624 18.3304 26.3776 18.5077C26.7026 18.685 27.0523 18.7737 27.4266 18.7737C27.7714 18.7737 28.0964 18.7146 28.4018 18.5964C28.717 18.4683 28.978 18.2959 29.1848 18.0792L30.2782 19.0692C29.8251 19.4435 29.3621 19.7193 28.8893 19.8966C28.4264 20.064 27.9142 20.1478 27.3527 20.1478ZM25.2251 15.6709H29.0962C29.0371 15.3163 28.914 15.0011 28.7268 14.7253C28.5495 14.4495 28.323 14.2328 28.0472 14.0752C27.7812 13.9176 27.4857 13.8388 27.1607 13.8388C26.8356 13.8388 26.5352 13.9176 26.2594 14.0752C25.9934 14.2229 25.7718 14.4347 25.5945 14.7105C25.4172 14.9863 25.2941 15.3064 25.2251 15.6709ZM32.2321 20V12.5977H33.9017V13.8092C34.1873 13.366 34.5272 13.036 34.9212 12.8193C35.3152 12.5927 35.7535 12.4795 36.2361 12.4795C36.7484 12.4795 37.1965 12.5927 37.5807 12.8193C37.9648 13.036 38.2653 13.3413 38.482 13.7354C38.7085 14.1294 38.8218 14.5923 38.8218 15.1242V20H37.1374V15.597C37.1374 15.0553 36.9897 14.6268 36.6942 14.3116C36.3987 13.9865 36.0047 13.824 35.5122 13.824C35.1773 13.824 34.8719 13.9028 34.5961 14.0604C34.3302 14.2082 34.0987 14.4298 33.9017 14.7253V20H32.2321ZM40.6839 20V12.5977H42.3535V14.1934C42.5702 13.6319 42.8509 13.2034 43.1957 12.9079C43.5404 12.6124 43.9394 12.4647 44.3925 12.4647C44.5304 12.4745 44.6535 12.4893 44.7618 12.509C44.8702 12.5189 44.9884 12.5533 45.1165 12.6124V14.0752C44.9884 14.0161 44.8406 13.9718 44.6732 13.9422C44.5156 13.9127 44.358 13.8979 44.2004 13.8979C43.7965 13.8979 43.4321 14.0062 43.107 14.2229C42.7918 14.4396 42.5407 14.7401 42.3535 15.1242V20H40.6839ZM47.0127 23.2357C46.7468 23.2357 46.471 23.2013 46.1853 23.1323V21.6844C46.2838 21.7041 46.3873 21.7188 46.4956 21.7287C46.6138 21.7385 46.7271 21.7435 46.8354 21.7435C47.1309 21.7435 47.3723 21.6745 47.5594 21.5366C47.7466 21.3987 47.9042 21.1869 48.0322 20.9013L48.3721 20.0739L45.5796 12.5977H47.4264L49.3177 18.0792L51.3714 12.5977H53.2035L49.6575 21.2854C49.4703 21.7582 49.2586 22.1375 49.0222 22.4231C48.7858 22.7088 48.505 22.9156 48.18 23.0437C47.8648 23.1717 47.4757 23.2357 47.0127 23.2357Z" fill="#34385C"/>
<defs>
<filter id="filter0_f_7825_76137" x="57.258" y="19.3159" width="24.0096" height="24.0096" filterUnits="userSpaceOnUse" color-interpolation-filters="sRGB">
<feFlood flood-opacity="0" result="BackgroundImageFix"/>
<feBlend mode="normal" in="SourceGraphic" in2="BackgroundImageFix" result="shape"/>
<feGaussianBlur stdDeviation="2.30861" result="effect1_foregroundBlur_7825_76137"/>
</filter>
<filter id="filter1_d_7825_76137" x="55.4111" y="22.0862" width="27.7034" height="27.7034" filterUnits="userSpaceOnUse" color-interpolation-filters="sRGB">
<feFlood flood-opacity="0" result="BackgroundImageFix"/>
<feColorMatrix in="SourceAlpha" type="matrix" values="0 0 0 0 0 0 0 0 0 0 0 0 0 0 0 0 0 0 127 0" result="hardAlpha"/>
<feOffset dy="4.61722"/>
<feGaussianBlur stdDeviation="3.23206"/>
<feComposite in2="hardAlpha" operator="out"/>
<feColorMatrix type="matrix" values="0 0 0 0 0 0 0 0 0 0 0 0 0 0 0 0 0 0 0.25 0"/>
<feBlend mode="normal" in2="BackgroundImageFix" result="effect1_dropShadow_7825_76137"/>
<feBlend mode="normal" in="SourceGraphic" in2="effect1_dropShadow_7825_76137" result="shape"/>
</filter>
<linearGradient id="paint0_linear_7825_76137" x1="76.6504" y1="31.3207" x2="61.8752" y2="31.3207" gradientUnits="userSpaceOnUse">
<stop stop-color="#221549"/>
<stop offset="1" stop-color="#6852AC"/>
</linearGradient>
<linearGradient id="paint1_linear_7825_76137" x1="76.6504" y1="31.3207" x2="61.8752" y2="31.3207" gradientUnits="userSpaceOnUse">
<stop stop-color="#221549"/>
<stop offset="1" stop-color="#6852AC"/>
</linearGradient>
<linearGradient id="paint2_linear_7825_76137" x1="41.0976" y1="29.4738" x2="77.818" y2="40.8926" gradientUnits="userSpaceOnUse">
<stop stop-color="#21B8E6"/>
<stop offset="1" stop-color="#7424DC"/>
</linearGradient>
</defs>
</svg>
