<svg width="468" height="407" viewBox="0 0 468 407" fill="none" xmlns="http://www.w3.org/2000/svg">
<path opacity="0.12" d="M262.674 406.786C368.773 406.786 454.783 396.623 454.783 384.088C454.783 371.552 368.773 361.39 262.674 361.39C156.576 361.39 70.5662 371.552 70.5662 384.088C70.5662 396.623 156.576 406.786 262.674 406.786Z" fill="#1B1E23"/>
<path d="M229.764 24.4419L258.84 105.879C259.555 107.867 259.055 110.084 257.567 111.571L242.764 126.403L229.764 24.4419Z" fill="#2A85B7"/>
<path d="M139.07 37.9438C142.217 34.0965 146.55 31.6365 151.27 31.0501L219.392 22.4545C223.139 21.9825 226.7 24.3138 228.059 28.1182L139.07 37.9438Z" fill="#247591"/>
<path d="M239.315 127.218L152.772 136.815C147.165 137.444 142.188 133.182 141.945 127.547L138.026 38.4581C137.94 36.5845 139.299 34.954 141.159 34.7252L226.686 23.9985C228.574 23.7697 230.305 25.0283 230.662 26.9019L247.811 115.676C248.912 121.268 244.979 126.589 239.315 127.218Z" fill="#2E8CCC"/>
<mask id="mask0_312_5951" style="mask-type:luminance" maskUnits="userSpaceOnUse" x="135" y="19" width="119" height="121">
<path d="M245.556 120.801L160.532 139.595C155.025 140.82 149.62 137.114 148.776 131.537L135.356 43.3749C135.071 41.5211 136.247 39.7547 138.071 39.3284L221.965 19.5199C223.818 19.0906 225.673 20.157 226.229 21.9817L252.769 108.417C254.462 113.859 251.12 119.57 245.556 120.801Z" fill="white"/>
</mask>
<g mask="url(#mask0_312_5951)">
<path d="M257.685 56.6054L106.476 72.8623L106.731 75.2372L257.94 58.9802L257.685 56.6054Z" fill="#1B566B"/>
</g>
<mask id="mask1_312_5951" style="mask-type:luminance" maskUnits="userSpaceOnUse" x="136" y="20" width="119" height="121">
<path d="M246.396 121.478L161.372 140.272C155.864 141.497 150.46 137.791 149.616 132.214L136.196 44.0519C135.91 42.1981 137.087 40.4317 138.911 40.0054L222.804 20.197C224.657 19.7676 226.512 20.834 227.068 22.6587L253.609 109.094C255.302 114.536 251.96 120.247 246.396 121.478Z" fill="white"/>
</mask>
<g mask="url(#mask1_312_5951)">
<path d="M264.408 49.1266L113.199 65.3835L113.454 67.7584L264.664 51.5015L264.408 49.1266Z" fill="#1B566B"/>
</g>
<mask id="mask2_312_5951" style="mask-type:luminance" maskUnits="userSpaceOnUse" x="138" y="23" width="110" height="114">
<path d="M239.315 127.218L152.772 136.815C147.165 137.444 142.188 133.182 141.945 127.547L138.026 38.4579C137.94 36.5843 139.299 34.9538 141.159 34.725L226.686 23.9983C228.574 23.7694 230.305 25.028 230.662 26.9016L247.811 115.676C248.912 121.268 244.979 126.589 239.315 127.218Z" fill="white"/>
</mask>
<g mask="url(#mask2_312_5951)">
<g opacity="0.1">
<path opacity="0.4" d="M235.224 24.2412C241.102 22.625 221.923 16.9184 217.575 17.4476L217.289 17.4762C215.287 17.7193 213.928 19.6359 214.371 21.6096L215.415 26.3579C226.986 78.69 190.601 129.506 137.325 135.413C135.594 135.599 134.293 137.058 134.278 138.788C134.25 143.88 138.669 147.856 143.718 147.298L242.089 136.385C247.123 135.828 250.556 131.036 249.455 126.088L235.224 24.2412Z" fill="white"/>
</g>
</g>
<path d="M165.602 48.6844C161.969 25.2 158.436 3.93252 180.591 1.22939C201.715 -1.34502 206.234 18.0632 208.509 43.6929" stroke="#212121" stroke-width="1.5836" stroke-miterlimit="10" stroke-linecap="round" stroke-linejoin="round"/>
<path d="M168.976 51.3874C169.162 53.0751 167.946 54.5769 166.273 54.7628C164.585 54.9487 163.084 53.733 162.898 52.0597C162.712 50.372 163.927 48.8702 165.601 48.6843C167.274 48.4984 168.79 49.7141 168.976 51.3874Z" fill="#1B566B"/>
<path d="M211.883 46.4103C212.069 48.0979 210.854 49.5997 209.18 49.7856C207.493 49.9715 205.991 48.7558 205.805 47.0825C205.619 45.3948 206.835 43.8931 208.508 43.7071C210.181 43.5069 211.683 44.7226 211.883 46.4103Z" fill="#1B566B"/>
<path d="M315.164 52.9894L396.172 12.4424C404.611 8.22322 414.98 11.6701 419.199 20.1084L440.881 63.4443C445.1 71.8827 441.653 82.2519 433.215 86.471L352.207 127.018C343.769 131.237 333.399 127.79 329.18 119.352L307.498 76.016C303.279 67.5777 306.726 57.2229 315.164 52.9894Z" fill="#2776B7"/>
<mask id="mask3_312_5951" style="mask-type:luminance" maskUnits="userSpaceOnUse" x="305" y="10" width="138" height="119">
<path d="M315.164 52.9894L396.172 12.4424C404.611 8.22322 414.98 11.6701 419.199 20.1084L440.881 63.4443C445.1 71.8827 441.653 82.2519 433.215 86.471L352.207 127.018C343.769 131.237 333.399 127.79 329.18 119.352L307.498 76.016C303.279 67.5777 306.726 57.2229 315.164 52.9894Z" fill="white"/>
</mask>
<g mask="url(#mask3_312_5951)">
<path d="M297.627 88.2016L437.79 22.4111L419.669 0.471436L288.088 56.7366L297.627 88.2016Z" fill="#2A81BC"/>
</g>
<mask id="mask4_312_5951" style="mask-type:luminance" maskUnits="userSpaceOnUse" x="305" y="10" width="138" height="119">
<path d="M315.164 52.9894L396.172 12.4424C404.611 8.22322 414.98 11.6701 419.199 20.1084L440.881 63.4443C445.1 71.8827 441.653 82.2519 433.215 86.471L352.207 127.018C343.769 131.237 333.399 127.79 329.18 119.352L307.498 76.016C303.279 67.5777 306.726 57.2229 315.164 52.9894Z" fill="white"/>
</mask>
<g mask="url(#mask4_312_5951)">
<path d="M337.445 83.0923L339.023 84.0404L339.049 84.027L339.196 82.1917L339.673 81.9463L339.481 84.1601L341.393 85.2917L340.917 85.537L339.352 84.615L339.326 84.6285L339.165 86.4376L338.688 86.6829L338.906 84.4558L336.968 83.3376L337.445 83.0923ZM340.396 81.5744L341.974 82.5225L342 82.509L342.147 80.6737L342.624 80.4284L342.432 82.6421L344.345 83.7737L343.868 84.019L342.303 83.0971L342.277 83.1105L342.117 84.9197L341.64 85.165L341.858 82.9378L339.919 81.8197L340.396 81.5744ZM343.347 80.0564L344.926 81.0045L344.952 80.9911L345.098 79.1558L345.575 78.9105L345.384 81.1242L347.296 82.2558L346.819 82.5011L345.254 81.5791L345.228 81.5926L345.068 83.4017L344.591 83.6471L344.809 81.4199L342.87 80.3017L343.347 80.0564ZM346.299 78.5385L347.877 79.4866L347.903 79.4732L348.05 77.6378L348.527 77.3925L348.335 79.6062L350.247 80.7378L349.77 80.9832L348.205 80.0612L348.179 80.0746L348.019 81.8838L347.542 82.1291L347.76 79.902L345.822 78.7838L346.299 78.5385ZM350.544 76.3552L352.122 77.3033L352.148 77.2898L352.295 75.4545L352.772 75.2092L352.58 77.4229L354.492 78.5545L354.015 78.7998L352.45 77.8779L352.424 77.8913L352.264 79.7005L351.787 79.9458L352.005 77.7186L350.067 76.6005L350.544 76.3552ZM353.495 74.8372L355.073 75.7853L355.099 75.7719L355.246 73.9366L355.723 73.6913L355.531 75.905L357.443 77.0366L356.966 77.2819L355.402 76.3599L355.376 76.3734L355.215 78.1825L354.738 78.4279L354.956 76.2007L353.018 75.0825L353.495 74.8372ZM356.446 73.3193L358.024 74.2674L358.05 74.2539L358.197 72.4186L358.674 72.1733L358.482 74.387L360.395 75.5186L359.918 75.764L358.353 74.842L358.327 74.8554L358.167 76.6646L357.69 76.9099L357.907 74.6828L355.969 73.5646L356.446 73.3193ZM359.397 71.8013L360.976 72.7495L361.002 72.736L361.148 70.9007L361.625 70.6554L361.434 72.8691L363.346 74.0007L362.869 74.246L361.304 73.3241L361.278 73.3375L361.118 75.1467L360.641 75.392L360.859 73.1648L358.92 72.0467L359.397 71.8013ZM363.642 69.618L365.22 70.5661L365.247 70.5527L365.393 68.7174L365.87 68.472L365.679 70.6858L367.591 71.8174L367.114 72.0627L365.549 71.1407L365.523 71.1542L365.363 72.9633L364.886 73.2087L365.104 70.9815L363.165 69.8633L363.642 69.618ZM366.593 68.1001L368.172 69.0482L368.198 69.0347L368.345 67.1994L368.822 66.9541L368.63 69.1678L370.542 70.2994L370.065 70.5448L368.5 69.6228L368.474 69.6362L368.314 71.4454L367.837 71.6907L368.055 69.4636L366.116 68.3454L366.593 68.1001ZM369.545 66.5821L371.123 67.5302L371.149 67.5168L371.296 65.6815L371.773 65.4362L371.581 67.6499L373.493 68.7815L373.016 69.0268L371.452 68.1048L371.425 68.1183L371.265 69.9275L370.788 70.1728L371.006 67.9456L369.068 66.8275L369.545 66.5821ZM372.496 65.0642L374.074 66.0123L374.1 65.9989L374.247 64.1636L374.724 63.9182L374.532 66.132L376.445 67.2636L375.968 67.5089L374.403 66.5869L374.377 66.6004L374.217 68.4095L373.74 68.6548L373.957 66.4277L372.019 65.3095L372.496 65.0642ZM376.741 62.8809L378.319 63.829L378.345 63.8155L378.492 61.9802L378.969 61.7349L378.777 63.9486L380.69 65.0802L380.213 65.3255L378.648 64.4036L378.622 64.417L378.462 66.2262L377.985 66.4715L378.202 64.2444L376.264 63.1262L376.741 62.8809ZM379.692 61.3629L381.27 62.311L381.297 62.2976L381.443 60.4623L381.92 60.217L381.729 62.4307L383.641 63.5623L383.164 63.8076L381.599 62.8856L381.573 62.8991L381.413 64.7083L380.936 64.9536L381.154 62.7264L379.215 61.6083L379.692 61.3629ZM382.643 59.845L384.222 60.7931L384.248 60.7797L384.394 58.9444L384.871 58.699L384.68 60.9127L386.592 62.0444L386.115 62.2897L384.55 61.3677L384.524 61.3811L384.364 63.1903L383.887 63.4356L384.105 61.2085L382.166 60.0903L382.643 59.845Z" fill="white"/>
</g>
<mask id="mask5_312_5951" style="mask-type:luminance" maskUnits="userSpaceOnUse" x="305" y="10" width="138" height="119">
<path d="M315.164 52.9894L396.172 12.4424C404.611 8.22322 414.98 11.6701 419.199 20.1084L440.881 63.4443C445.1 71.8827 441.653 82.2519 433.215 86.471L352.207 127.018C343.769 131.237 333.399 127.79 329.18 119.352L307.498 76.016C303.279 67.5777 306.726 57.2229 315.164 52.9894Z" fill="white"/>
</mask>
<g mask="url(#mask5_312_5951)">
<path d="M412.804 69.0501L414.288 70.312L414.31 70.2991L413.946 68.3858L414.185 68.2465L414.59 70.5353L414.354 70.6725L412.565 69.1894L412.804 69.0501ZM415.492 70.0108L415.252 70.1501L414.848 67.8613L415.083 67.7241L416.873 69.2072L416.634 69.3465L415.146 68.0868L415.132 68.0953L415.492 70.0108ZM415.152 69.2227L416.117 68.6612L416.234 68.8638L415.269 69.4253L415.152 69.2227ZM417.167 69.0363L416.07 67.1503L416.298 67.0174L417.277 68.7008L418.154 68.1908L418.272 68.3934L417.167 69.0363ZM417.757 66.1688L418.854 68.0548L418.625 68.1876L417.528 66.3017L417.757 66.1688ZM419.894 67.4498L419.312 67.7884L418.215 65.9024L418.822 65.5488C419.005 65.4424 419.184 65.389 419.358 65.3888C419.532 65.388 419.694 65.4377 419.845 65.5379C419.996 65.6375 420.128 65.785 420.242 65.9802C420.356 66.1766 420.419 66.3661 420.432 66.5487C420.444 66.7306 420.405 66.8985 420.316 67.0525C420.226 67.2059 420.085 67.3383 419.894 67.4498ZM419.422 67.4529L419.761 67.2557C419.917 67.165 420.029 67.0597 420.096 66.9399C420.164 66.8201 420.19 66.69 420.176 66.5496C420.162 66.4092 420.11 66.2623 420.021 66.1088C419.932 65.9565 419.831 65.8399 419.717 65.759C419.603 65.6774 419.48 65.6359 419.347 65.6344C419.213 65.6324 419.073 65.6742 418.925 65.76L418.561 65.9721L419.422 67.4529Z" fill="white"/>
</g>
<mask id="mask6_312_5951" style="mask-type:luminance" maskUnits="userSpaceOnUse" x="305" y="10" width="138" height="119">
<path d="M315.164 52.9894L396.172 12.4424C404.611 8.22322 414.98 11.6701 419.199 20.1084L440.881 63.4443C445.1 71.8827 441.653 82.2519 433.215 86.471L352.207 127.018C343.769 131.237 333.399 127.79 329.18 119.352L307.498 76.016C303.279 67.5777 306.726 57.2229 315.164 52.9894Z" fill="white"/>
</mask>
<g mask="url(#mask6_312_5951)">
<path d="M408.337 76.8477L409.908 77.6839L409.932 77.6696L409.982 75.8905L410.43 75.6297L410.356 77.7764L412.259 78.773L411.811 79.0337L410.254 78.2221L410.229 78.2364L410.165 79.991L409.717 80.2517L409.816 78.0907L407.888 77.1084L408.337 76.8477ZM411.11 75.2344L412.681 76.0706L412.705 76.0563L412.755 74.2772L413.203 74.0164L413.129 76.1631L415.032 77.1597L414.584 77.4204L413.027 76.6088L413.002 76.6231L412.938 78.3777L412.49 78.6384L412.589 76.4774L410.661 75.4951L411.11 75.2344ZM415.521 74.5457L415.717 74.8834L414.342 75.6834L414.145 75.3458L415.521 74.5457ZM415.305 72.7935L416.876 73.6297L416.901 73.6154L416.95 71.8363L417.398 71.5756L417.324 73.7223L419.227 74.7189L418.779 74.9796L417.222 74.168L417.198 74.1823L417.134 75.9368L416.685 76.1976L416.784 74.0366L414.857 73.0543L415.305 72.7935ZM418.078 71.1802L419.649 72.0164L419.674 72.0021L419.723 70.223L420.171 69.9623L420.097 72.109L422 73.1056L421.552 73.3663L419.995 72.5547L419.971 72.5689L419.907 74.3235L419.458 74.5842L419.557 72.4233L417.63 71.441L418.078 71.1802Z" fill="white"/>
</g>
<mask id="mask7_312_5951" style="mask-type:luminance" maskUnits="userSpaceOnUse" x="305" y="10" width="138" height="119">
<path d="M315.164 52.9894L396.172 12.4424C404.611 8.22322 414.98 11.6701 419.199 20.1084L440.881 63.4443C445.1 71.8827 441.653 82.2519 433.215 86.471L352.207 127.018C343.769 131.237 333.399 127.79 329.18 119.352L307.498 76.016C303.279 67.5777 306.726 57.2229 315.164 52.9894Z" fill="white"/>
</mask>
<g mask="url(#mask7_312_5951)">
<path d="M383.615 40.3893C386.87 40.3893 389.508 37.7511 389.508 34.4968C389.508 31.2424 386.87 28.6042 383.615 28.6042C380.361 28.6042 377.723 31.2424 377.723 34.4968C377.723 37.7511 380.361 40.3893 383.615 40.3893Z" fill="#2673A8"/>
</g>
<mask id="mask8_312_5951" style="mask-type:luminance" maskUnits="userSpaceOnUse" x="305" y="10" width="138" height="119">
<path d="M315.164 52.9894L396.172 12.4424C404.611 8.22322 414.98 11.6701 419.199 20.1084L440.881 63.4443C445.1 71.8827 441.653 82.2519 433.215 86.471L352.207 127.018C343.769 131.237 333.399 127.79 329.18 119.352L307.498 76.016C303.279 67.5777 306.726 57.2229 315.164 52.9894Z" fill="white"/>
</mask>
<g mask="url(#mask8_312_5951)">
<path d="M390.766 36.4704C394.02 36.4704 396.658 33.8322 396.658 30.5778C396.658 27.3235 394.02 24.6853 390.766 24.6853C387.511 24.6853 384.873 27.3235 384.873 30.5778C384.873 33.8322 387.511 36.4704 390.766 36.4704Z" fill="#2776B7"/>
</g>
<path d="M256.139 35.3402C255.181 43.9931 247.629 50.1288 239.262 49.0561C230.896 47.9835 224.903 40.1029 225.847 31.4643C226.805 22.8114 234.357 16.6758 242.724 17.7484C246.9 18.2776 250.49 20.5231 252.921 23.7125C255.352 26.8876 256.611 31.021 256.139 35.3402Z" fill="#FCAF15"/>
<path d="M253.207 35.3113C252.249 42.2908 246.013 47.0821 239.262 46.038C232.511 44.9797 227.82 38.4721 228.778 31.4926C229.737 24.5131 235.973 19.7218 242.723 20.7659C246.099 21.2951 248.959 23.183 250.847 25.8146C252.749 28.4462 253.679 31.8216 253.207 35.3113Z" fill="#FECA57"/>
<mask id="mask9_312_5951" style="mask-type:luminance" maskUnits="userSpaceOnUse" x="228" y="20" width="26" height="27">
<path d="M253.208 35.3116C252.25 42.2911 246.014 47.0823 239.263 46.0383C232.512 44.9799 227.821 38.4724 228.779 31.4928C229.738 24.5133 235.974 19.7221 242.724 20.7661C246.1 21.2953 248.96 23.1832 250.848 25.8148C252.75 28.4465 253.68 31.8218 253.208 35.3116Z" fill="white"/>
</mask>
<g mask="url(#mask9_312_5951)">
<path opacity="0.02" d="M253.908 35.6115C254.409 31.993 253.508 28.4889 251.663 25.6714C252.464 27.8453 252.764 30.2481 252.421 32.6938C251.362 40.417 244.454 45.7232 236.988 44.5504C233.027 43.9354 229.723 41.6041 227.635 38.4004C229.351 43.063 233.384 46.6671 238.476 47.4538C245.942 48.6408 252.85 43.3347 253.908 35.6115Z" fill="black"/>
</g>
<mask id="mask10_312_5951" style="mask-type:luminance" maskUnits="userSpaceOnUse" x="228" y="20" width="26" height="27">
<path d="M253.208 35.3116C252.25 42.2911 246.014 47.0823 239.263 46.0383C232.512 44.9799 227.821 38.4724 228.779 31.4928C229.738 24.5133 235.974 19.7221 242.724 20.7661C246.1 21.2953 248.96 23.1832 250.848 25.8148C252.75 28.4465 253.68 31.8218 253.208 35.3116Z" fill="white"/>
</mask>
<g mask="url(#mask10_312_5951)">
<path opacity="0.13" d="M227.549 37.6857C228.564 41.2041 230.781 44.0073 233.598 45.7808C231.997 44.1503 230.752 42.0908 230.066 39.7023C227.906 32.2079 231.997 24.3703 239.219 22.1963C243.052 21.0378 246.985 21.7386 250.16 23.741C246.728 20.2369 241.622 18.6923 236.702 20.1797C229.479 22.3393 225.389 30.177 227.549 37.6857Z" fill="white"/>
</g>
<path d="M240.243 34.0041L242.358 24.8438L242.943 24.9894L240.828 34.1496L240.243 34.0041ZM243.691 28.0819C243.732 27.7086 243.623 27.384 243.366 27.1078C243.108 26.8317 242.758 26.6386 242.316 26.5285C241.993 26.4481 241.698 26.4301 241.432 26.4747C241.167 26.5199 240.946 26.6175 240.769 26.7674C240.593 26.918 240.478 27.1101 240.425 27.3439C240.379 27.5395 240.387 27.7192 240.447 27.8831C240.51 28.0451 240.605 28.191 240.73 28.3207C240.857 28.448 240.994 28.5616 241.142 28.6615C241.29 28.759 241.428 28.8425 241.555 28.912L242.25 29.297C242.428 29.3945 242.624 29.5163 242.836 29.6626C243.051 29.8094 243.248 29.9858 243.426 30.1917C243.608 30.3959 243.741 30.6335 243.827 30.9046C243.912 31.1756 243.916 31.4829 243.836 31.8264C243.745 32.2224 243.559 32.5545 243.278 32.8227C243 33.0914 242.642 33.2709 242.204 33.3611C241.769 33.452 241.271 33.4275 240.71 33.2879C240.187 33.1577 239.754 32.9603 239.411 32.6956C239.07 32.4316 238.825 32.1209 238.677 31.7635C238.53 31.4066 238.489 31.0243 238.553 30.6164L239.466 30.8437C239.425 31.1263 239.465 31.3784 239.585 31.5999C239.708 31.8197 239.883 32.0048 240.112 32.1552C240.344 32.3038 240.605 32.4142 240.895 32.4864C241.233 32.5704 241.548 32.591 241.842 32.5481C242.136 32.5029 242.385 32.4008 242.587 32.2418C242.79 32.0805 242.923 31.8663 242.984 31.5991C243.04 31.3558 243.018 31.1409 242.918 30.9545C242.818 30.7681 242.669 30.5997 242.47 30.4492C242.271 30.2988 242.051 30.1558 241.811 30.0203L240.973 29.539C240.441 29.2324 240.044 28.885 239.781 28.4968C239.519 28.1086 239.445 27.6676 239.559 27.1738C239.654 26.7635 239.847 26.4332 240.139 26.1829C240.433 25.9308 240.787 25.7668 241.202 25.6909C241.619 25.6133 242.061 25.6324 242.526 25.7484C242.997 25.8656 243.395 26.0544 243.722 26.3149C244.049 26.573 244.286 26.8742 244.433 27.2185C244.582 27.5634 244.62 27.9222 244.546 28.2949L243.691 28.0819Z" fill="white"/>
<path d="M348.031 39.2737C349.562 38.0723 353.638 38.9877 356.184 42.3916C358.744 45.7955 359.659 49.6 357.213 51.445" stroke="#212121" stroke-width="0.5" stroke-miterlimit="10" stroke-linecap="round" stroke-linejoin="round"/>
<path d="M353.738 112.945H273.087C271.771 112.945 270.713 111.887 270.713 110.571V41.6483C270.713 40.3325 271.771 39.2742 273.087 39.2742H353.738C355.053 39.2742 356.112 40.3325 356.112 41.6483V110.571C356.112 111.887 355.039 112.945 353.738 112.945Z" fill="#FECA57"/>
<path opacity="0.4" d="M314.477 57.9241H312.332V120.497H314.477V57.9241Z" fill="#F9A40D"/>
<path d="M325.332 39.2742H301.476V72.341H325.332V39.2742Z" fill="#FCAF15"/>
<path d="M368.326 53.0896C368.197 52.6462 367.926 52.26 367.554 51.9883L360.403 46.6106C359.859 46.2102 359.158 46.0815 358.515 46.2674L352.965 47.8835C352.279 48.0838 351.735 48.5987 351.521 49.2852L348.732 57.8522C348.603 58.267 348.589 58.6961 348.718 59.1108L353.924 77.0173C354.253 78.1615 355.44 78.8051 356.584 78.4761L372.245 73.928C373.389 73.599 374.047 72.3977 373.704 71.2535L368.326 53.0896ZM357.599 52.732C356.655 53.0037 355.654 52.4603 355.383 51.5163C355.111 50.5724 355.654 49.5712 356.598 49.2995C357.542 49.0277 358.543 49.5712 358.815 50.5152C359.087 51.4734 358.543 52.4603 357.599 52.732Z" fill="#FCAF15"/>
<path d="M357.427 51.7165C353.608 54.2909 349.932 49.6141 347.944 46.8252C346.857 45.2376 345.484 43.507 345.842 41.4189C346.228 39.8743 347.558 38.6299 349.16 38.5012C349.661 38.5727 350.133 38.5727 350.619 38.6299C350.748 38.6442 350.848 38.7587 350.834 38.9017C350.819 39.0304 350.705 39.1162 350.576 39.1162C350.118 39.1019 349.646 39.0733 349.203 39.202C346.857 39.5739 345.77 42.0339 347.043 44.0934C348.388 46.4676 350.118 48.8704 352.221 50.5724C353.58 51.6593 355.51 52.3458 356.998 51.1873C357.355 50.8584 357.799 51.4448 357.427 51.7165Z" fill="#212121"/>
<path d="M277.547 62.8871C280.179 71.1824 275.759 79.8639 267.679 82.2667C259.598 84.6694 250.916 79.9068 248.285 71.6115C245.653 63.3161 250.072 54.6347 258.153 52.2319C262.187 51.0305 266.377 51.6169 269.895 53.5477C273.414 55.4785 276.231 58.7394 277.547 62.8871Z" fill="#FCAF15"/>
<path d="M274.86 64.0451C276.805 70.8101 273.044 77.7324 266.45 79.4915C259.857 81.2507 252.92 77.2032 250.975 70.4382C249.03 63.6732 252.792 56.7509 259.385 54.9917C262.689 54.105 266.064 54.6771 268.868 56.3219C271.671 57.9666 273.888 60.6697 274.86 64.0451Z" fill="#FECA57"/>
<mask id="mask11_312_5951" style="mask-type:luminance" maskUnits="userSpaceOnUse" x="250" y="54" width="26" height="26">
<path d="M274.857 64.0446C276.802 70.8096 273.041 77.7319 266.448 79.4911C259.854 81.2502 252.918 77.2027 250.972 70.4377C249.027 63.6727 252.789 56.7504 259.382 54.9912C262.686 54.1045 266.061 54.6766 268.865 56.3214C271.668 57.9661 273.885 60.6692 274.857 64.0446Z" fill="white"/>
</mask>
<g mask="url(#mask11_312_5951)">
<path opacity="0.02" d="M275.615 64.0447C274.6 60.5263 272.368 57.6945 269.537 55.8638C271.153 57.5228 272.397 59.5967 273.084 61.9851C275.243 69.4652 271.081 77.1313 263.773 79.0764C259.897 80.1204 255.935 79.3195 252.731 77.2457C256.193 80.8069 261.327 82.4803 266.304 81.1359C273.613 79.1908 277.775 71.5248 275.615 64.0447Z" fill="black"/>
</g>
<mask id="mask12_312_5951" style="mask-type:luminance" maskUnits="userSpaceOnUse" x="250" y="54" width="26" height="26">
<path d="M274.857 64.0446C276.802 70.8096 273.041 77.7319 266.448 79.4911C259.854 81.2502 252.918 77.2027 250.972 70.4377C249.027 63.6727 252.789 56.7504 259.382 54.9912C262.686 54.1045 266.061 54.6766 268.865 56.3214C271.668 57.9661 273.885 60.6692 274.857 64.0446Z" fill="white"/>
</mask>
<g mask="url(#mask12_312_5951)">
<path opacity="0.13" d="M252.36 76.6166C254.72 79.4199 257.881 81.0932 261.17 81.5795C259.039 80.7357 257.08 79.3483 255.478 77.4461C250.458 71.4678 251.044 62.6433 256.765 57.7233C259.797 55.1203 263.688 54.162 267.406 54.7055C262.844 52.8891 257.552 53.547 253.647 56.8938C247.926 61.7995 247.34 70.624 252.36 76.6166Z" fill="white"/>
</g>
<path d="M261.279 68.6829L258.439 59.7208L259.016 59.5488L261.857 68.5109L261.279 68.6829ZM261.234 61.8305C261.079 61.4884 260.821 61.264 260.458 61.1575C260.096 61.0509 259.697 61.0626 259.26 61.1927C258.941 61.2878 258.678 61.4223 258.471 61.5963C258.267 61.7696 258.126 61.9661 258.049 62.1856C257.975 62.4045 257.974 62.6283 258.046 62.857C258.107 63.0484 258.205 63.1993 258.34 63.3097C258.477 63.4171 258.632 63.4946 258.807 63.5423C258.98 63.5876 259.156 63.6157 259.334 63.6265C259.511 63.635 259.673 63.6368 259.817 63.632L260.612 63.6099C260.815 63.603 261.045 63.6084 261.302 63.6262C261.562 63.6434 261.821 63.6952 262.08 63.7816C262.34 63.865 262.576 64.0016 262.787 64.1914C262.999 64.3812 263.158 64.6442 263.264 64.9803C263.387 65.3677 263.396 65.7482 263.291 66.1217C263.188 66.4946 262.972 66.8313 262.641 67.1317C262.312 67.4314 261.871 67.6638 261.317 67.8288C260.801 67.9826 260.327 68.0329 259.897 67.9798C259.469 67.9259 259.1 67.783 258.791 67.5509C258.483 67.3181 258.253 67.0099 258.101 66.6262L259.002 66.3577C259.111 66.6215 259.274 66.8182 259.489 66.9481C259.707 67.0749 259.952 67.1447 260.226 67.1577C260.501 67.1676 260.782 67.1299 261.068 67.0446C261.402 66.9453 261.684 66.8025 261.915 66.6161C262.145 66.4275 262.307 66.2132 262.401 65.9733C262.493 65.7311 262.498 65.4793 262.415 65.218C262.34 64.9799 262.212 64.8061 262.031 64.6966C261.85 64.5871 261.635 64.5182 261.387 64.4898C261.14 64.4615 260.878 64.4501 260.602 64.4556L259.635 64.4678C259.021 64.4745 258.503 64.3775 258.08 64.1766C257.656 63.9758 257.368 63.6338 257.215 63.1507C257.088 62.7493 257.086 62.3667 257.21 62.0029C257.335 61.6361 257.556 61.3146 257.875 61.0385C258.194 60.7593 258.584 60.5512 259.044 60.4141C259.509 60.2757 259.948 60.2355 260.362 60.2935C260.775 60.3492 261.132 60.488 261.434 60.7098C261.737 60.9309 261.952 61.2206 262.079 61.5788L261.234 61.8305Z" fill="white"/>
<path d="M352.932 57.7487C352.867 57.6054 352.759 57.5115 352.607 57.467C352.455 57.4224 352.288 57.4273 352.106 57.4817C351.972 57.5215 351.862 57.5778 351.776 57.6506C351.69 57.7231 351.631 57.8053 351.599 57.8972C351.568 57.9888 351.567 58.0825 351.598 58.1782C351.623 58.2583 351.664 58.3214 351.721 58.3677C351.778 58.4126 351.843 58.4451 351.916 58.465C351.988 58.484 352.062 58.4957 352.137 58.5003C352.211 58.5038 352.278 58.5046 352.339 58.5026L352.671 58.4933C352.756 58.4904 352.852 58.4927 352.96 58.5002C353.069 58.5074 353.177 58.529 353.285 58.5652C353.394 58.6001 353.493 58.6573 353.582 58.7367C353.67 58.8162 353.737 58.9262 353.781 59.0669C353.833 59.229 353.836 59.3883 353.792 59.5446C353.749 59.7007 353.658 59.8415 353.52 59.9673C353.382 60.0927 353.198 60.19 352.966 60.259C352.75 60.3234 352.552 60.3444 352.372 60.3222C352.193 60.2996 352.038 60.2398 351.909 60.1427C351.78 60.0453 351.684 59.9162 351.62 59.7557L351.997 59.6433C352.043 59.7537 352.111 59.8361 352.201 59.8904C352.292 59.9435 352.395 59.9727 352.509 59.9781C352.625 59.9823 352.742 59.9665 352.862 59.9308C353.001 59.8893 353.119 59.8295 353.216 59.7515C353.313 59.6725 353.38 59.5829 353.42 59.4825C353.458 59.3811 353.46 59.2757 353.426 59.1663C353.394 59.0667 353.341 58.994 353.265 58.9481C353.189 58.9023 353.099 58.8735 352.996 58.8616C352.892 58.8497 352.782 58.845 352.667 58.8473L352.263 58.8524C352.006 58.8552 351.789 58.8146 351.611 58.7305C351.434 58.6464 351.314 58.5033 351.25 58.3011C351.197 58.1331 351.196 57.973 351.248 57.8207C351.3 57.6672 351.393 57.5327 351.526 57.4171C351.66 57.3003 351.823 57.2132 352.015 57.1558C352.21 57.0979 352.394 57.0811 352.567 57.1054C352.74 57.1287 352.889 57.1868 353.015 57.2796C353.142 57.3722 353.232 57.4934 353.285 57.6433L352.932 57.7487ZM354.763 59.6657L354.38 59.7798L354.538 56.4492L354.915 56.3368L356.973 59.0074L356.59 59.1215L354.888 56.8642L354.865 56.8712L354.763 59.6657ZM354.534 58.4514L356.077 57.9915L356.179 58.3138L354.636 58.7738L354.534 58.4514ZM357.443 58.8674L356.492 55.8668L356.858 55.7579L357.706 58.4362L359.108 58.0184L359.21 58.3408L357.443 58.8674ZM359.776 58.1722L358.825 55.1716L360.646 54.6292L360.748 54.9515L359.293 55.3851L359.614 56.399L360.975 55.9935L361.077 56.3158L359.716 56.7213L360.039 57.7411L361.518 57.3005L361.62 57.6228L359.776 58.1722Z" fill="white"/>
<path d="M74.7412 145.883H13.4845C10.0663 145.883 7.27734 148.672 7.27734 152.09V195.469C7.27734 198.887 10.0663 201.676 13.4845 201.676H55.4761L65.8023 208.455C68.2337 210.043 71.4803 208.412 71.6376 205.509L71.8379 201.69H74.7412C78.1595 201.69 80.9484 198.901 80.9484 195.483V152.104C80.9484 148.672 78.1595 145.883 74.7412 145.883Z" fill="#2776B7"/>
<path d="M242.496 316.694C242.496 316.694 245.171 350.462 233.157 369.27C229.867 374.418 233.486 381.155 239.593 381.155L329.697 376.864C336.062 376.864 341.125 375.591 337.306 370.5C329.125 359.587 325.678 334.029 327.609 315.364L242.496 316.694Z" fill="#BAD1E5"/>
<mask id="mask13_312_5951" style="mask-type:luminance" maskUnits="userSpaceOnUse" x="231" y="315" width="108" height="67">
<path d="M242.495 316.694C242.495 316.694 245.17 350.462 233.156 369.27C229.866 374.418 233.485 381.155 239.592 381.155L329.696 376.864C336.061 376.864 341.124 375.591 337.305 370.5C329.124 359.587 325.677 334.029 327.608 315.364L242.495 316.694Z" fill="white"/>
</mask>
<g mask="url(#mask13_312_5951)">
<path d="M348.189 322.773H238.733V340.05H348.189V322.773Z" fill="#B2C8D8"/>
</g>
<path d="M435.948 333.871H134.585C125.145 333.871 117.422 326.148 117.422 316.709V111.557C117.422 102.117 125.145 94.394 134.585 94.394H435.948C445.388 94.394 453.111 102.117 453.111 111.557V316.709C453.111 326.148 445.388 333.871 435.948 333.871Z" fill="#BAD1E5"/>
<mask id="mask14_312_5951" style="mask-type:luminance" maskUnits="userSpaceOnUse" x="117" y="94" width="337" height="240">
<path d="M435.947 333.872H134.584C125.144 333.872 117.421 326.148 117.421 316.709V111.557C117.421 102.118 125.144 94.3943 134.584 94.3943H435.947C445.387 94.3943 453.11 102.118 453.11 111.557V316.709C453.11 326.148 445.387 333.872 435.947 333.872Z" fill="white"/>
</mask>
<g mask="url(#mask14_312_5951)">
<path d="M472.118 33.9382H95.9678V292.237H472.118V33.9382Z" fill="#3A4149"/>
</g>
<path d="M436.363 110.126H136.015V277.463H436.363V110.126Z" fill="#FCFFFF"/>
<path d="M185.885 174.415H152.232C150.587 174.415 149.243 173.085 149.243 171.426V137.773C149.243 136.128 150.573 134.783 152.232 134.783H185.885C187.53 134.783 188.874 136.114 188.874 137.773V171.426C188.874 173.085 187.544 174.415 185.885 174.415Z" fill="#EFEFEF"/>
<path d="M183.969 179.607H154.349C153.891 179.607 153.519 179.235 153.519 178.777C153.519 178.319 153.891 177.948 154.349 177.948H183.969C184.426 177.948 184.798 178.319 184.798 178.777C184.798 179.22 184.426 179.607 183.969 179.607Z" fill="#EFEFEF"/>
<path d="M183.569 189.747H154.492C152.39 189.747 150.673 188.031 150.673 185.928C150.673 183.826 152.39 182.11 154.492 182.11H183.569C185.671 182.11 187.387 183.826 187.387 185.928C187.387 188.031 185.671 189.747 183.569 189.747Z" fill="#54A0FF"/>
<path d="M149.715 143.265C152.874 143.265 155.436 140.703 155.436 137.544C155.436 134.384 152.874 131.823 149.715 131.823C146.555 131.823 143.994 134.384 143.994 137.544C143.994 140.703 146.555 143.265 149.715 143.265Z" fill="#54A0FF"/>
<path d="M149.561 138.178V133.72H149.847V138.178H149.561ZM150.523 135.057C150.502 134.881 150.417 134.744 150.268 134.646C150.12 134.549 149.938 134.5 149.722 134.5C149.564 134.5 149.426 134.525 149.307 134.576C149.19 134.628 149.098 134.698 149.032 134.787C148.967 134.877 148.934 134.978 148.934 135.092C148.934 135.187 148.957 135.269 149.002 135.337C149.049 135.405 149.108 135.461 149.18 135.506C149.252 135.55 149.327 135.587 149.406 135.616C149.485 135.644 149.558 135.667 149.624 135.684L149.986 135.782C150.079 135.806 150.183 135.84 150.296 135.883C150.411 135.925 150.521 135.984 150.625 136.058C150.731 136.132 150.818 136.226 150.887 136.341C150.955 136.455 150.989 136.597 150.989 136.764C150.989 136.956 150.939 137.131 150.838 137.286C150.738 137.442 150.592 137.565 150.399 137.657C150.207 137.749 149.975 137.795 149.701 137.795C149.445 137.795 149.224 137.753 149.037 137.671C148.851 137.589 148.705 137.474 148.598 137.326C148.493 137.179 148.433 137.007 148.419 136.812H148.865C148.876 136.947 148.922 137.059 149.001 137.147C149.081 137.234 149.182 137.299 149.304 137.342C149.427 137.384 149.559 137.405 149.701 137.405C149.866 137.405 150.014 137.378 150.145 137.324C150.276 137.27 150.38 137.194 150.456 137.098C150.533 137.001 150.571 136.887 150.571 136.757C150.571 136.638 150.538 136.542 150.472 136.468C150.406 136.393 150.319 136.333 150.211 136.287C150.103 136.24 149.986 136.199 149.861 136.165L149.422 136.039C149.143 135.959 148.923 135.845 148.76 135.696C148.598 135.548 148.517 135.353 148.517 135.113C148.517 134.913 148.571 134.739 148.678 134.59C148.788 134.441 148.934 134.325 149.117 134.242C149.302 134.158 149.508 134.117 149.736 134.117C149.965 134.117 150.17 134.158 150.349 134.24C150.527 134.322 150.669 134.433 150.773 134.575C150.879 134.716 150.935 134.877 150.941 135.057H150.523Z" fill="#FCFFFF"/>
<path d="M185.885 246.17H152.232C150.587 246.17 149.243 244.84 149.243 243.181V209.528C149.243 207.883 150.573 206.539 152.232 206.539H185.885C187.53 206.539 188.874 207.869 188.874 209.528V243.181C188.874 244.84 187.544 246.17 185.885 246.17Z" fill="#EFEFEF"/>
<path d="M183.969 251.348H154.349C153.891 251.348 153.519 250.976 153.519 250.518C153.519 250.06 153.891 249.688 154.349 249.688H183.969C184.426 249.688 184.798 250.06 184.798 250.518C184.798 250.976 184.426 251.348 183.969 251.348Z" fill="#EFEFEF"/>
<path d="M183.569 261.488H154.492C152.39 261.488 150.673 259.772 150.673 257.67C150.673 255.567 152.39 253.851 154.492 253.851H183.569C185.671 253.851 187.387 255.567 187.387 257.67C187.387 259.772 185.671 261.488 183.569 261.488Z" fill="#54A0FF"/>
<path d="M149.715 215.006C152.874 215.006 155.436 212.444 155.436 209.285C155.436 206.125 152.874 203.564 149.715 203.564C146.555 203.564 143.994 206.125 143.994 209.285C143.994 212.444 146.555 215.006 149.715 215.006Z" fill="#54A0FF"/>
<path d="M149.561 209.928V205.47H149.847V209.928H149.561ZM150.523 206.808C150.502 206.631 150.417 206.494 150.268 206.397C150.12 206.299 149.938 206.25 149.722 206.25C149.564 206.25 149.426 206.276 149.307 206.327C149.19 206.378 149.098 206.448 149.032 206.538C148.967 206.627 148.934 206.729 148.934 206.842C148.934 206.938 148.957 207.019 149.002 207.088C149.049 207.155 149.108 207.212 149.18 207.257C149.252 207.301 149.327 207.338 149.406 207.367C149.485 207.394 149.558 207.417 149.624 207.434L149.986 207.532C150.079 207.556 150.183 207.59 150.296 207.633C150.411 207.676 150.521 207.735 150.625 207.809C150.731 207.882 150.818 207.976 150.887 208.091C150.955 208.206 150.989 208.347 150.989 208.514C150.989 208.707 150.939 208.881 150.838 209.037C150.738 209.192 150.592 209.316 150.399 209.408C150.207 209.499 149.975 209.545 149.701 209.545C149.445 209.545 149.224 209.504 149.037 209.421C148.851 209.339 148.705 209.224 148.598 209.077C148.493 208.929 148.433 208.758 148.419 208.563H148.865C148.876 208.698 148.922 208.809 149.001 208.897C149.081 208.984 149.182 209.049 149.304 209.092C149.427 209.134 149.559 209.155 149.701 209.155C149.866 209.155 150.014 209.128 150.145 209.075C150.276 209.02 150.38 208.945 150.456 208.849C150.533 208.751 150.571 208.637 150.571 208.507C150.571 208.389 150.538 208.292 150.472 208.218C150.406 208.144 150.319 208.083 150.211 208.037C150.103 207.991 149.986 207.95 149.861 207.915L149.422 207.79C149.143 207.71 148.923 207.595 148.76 207.447C148.598 207.298 148.517 207.104 148.517 206.863C148.517 206.664 148.571 206.489 148.678 206.341C148.788 206.191 148.934 206.075 149.117 205.993C149.302 205.909 149.508 205.867 149.736 205.867C149.965 205.867 150.17 205.908 150.349 205.991C150.527 206.072 150.669 206.184 150.773 206.325C150.879 206.467 150.935 206.628 150.941 206.808H150.523Z" fill="#FCFFFF"/>
<path d="M245.127 174.415H211.474C209.829 174.415 208.484 173.085 208.484 171.426V137.773C208.484 136.128 209.814 134.783 211.474 134.783H245.127C246.772 134.783 248.116 136.114 248.116 137.773V171.426C248.116 173.085 246.772 174.415 245.127 174.415Z" fill="#EFEFEF"/>
<path d="M243.211 179.607H213.59C213.133 179.607 212.761 179.235 212.761 178.778C212.761 178.32 213.133 177.948 213.59 177.948H243.211C243.668 177.948 244.04 178.32 244.04 178.778C244.04 179.221 243.668 179.607 243.211 179.607Z" fill="#EFEFEF"/>
<path d="M242.809 189.748H213.733C211.63 189.748 209.914 188.031 209.914 185.929C209.914 183.826 211.63 182.11 213.733 182.11H242.809C244.912 182.11 246.628 183.826 246.628 185.929C246.614 188.031 244.897 189.748 242.809 189.748Z" fill="#54A0FF"/>
<path d="M208.957 143.265C212.117 143.265 214.678 140.704 214.678 137.544C214.678 134.385 212.117 131.823 208.957 131.823C205.798 131.823 203.236 134.385 203.236 137.544C203.236 140.704 205.798 143.265 208.957 143.265Z" fill="#54A0FF"/>
<path d="M208.801 138.178V133.72H209.086V138.178H208.801ZM209.762 135.058C209.741 134.881 209.657 134.744 209.508 134.647C209.359 134.549 209.177 134.5 208.961 134.5C208.803 134.5 208.665 134.526 208.547 134.577C208.429 134.628 208.338 134.698 208.272 134.788C208.206 134.877 208.174 134.979 208.174 135.092C208.174 135.188 208.197 135.269 208.242 135.338C208.288 135.405 208.348 135.462 208.42 135.507C208.492 135.551 208.567 135.588 208.646 135.617C208.725 135.644 208.797 135.667 208.864 135.684L209.226 135.782C209.319 135.806 209.422 135.84 209.536 135.883C209.651 135.926 209.76 135.985 209.865 136.059C209.971 136.132 210.058 136.226 210.126 136.341C210.195 136.456 210.229 136.597 210.229 136.764C210.229 136.957 210.178 137.131 210.077 137.287C209.978 137.442 209.831 137.566 209.639 137.658C209.447 137.749 209.214 137.795 208.94 137.795C208.685 137.795 208.464 137.754 208.277 137.671C208.091 137.589 207.945 137.474 207.838 137.327C207.732 137.179 207.672 137.008 207.659 136.813H208.104C208.116 136.948 208.161 137.059 208.24 137.147C208.32 137.234 208.421 137.299 208.543 137.342C208.666 137.384 208.799 137.405 208.94 137.405C209.105 137.405 209.253 137.378 209.384 137.325C209.515 137.27 209.619 137.195 209.696 137.099C209.773 137.001 209.811 136.887 209.811 136.757C209.811 136.639 209.778 136.542 209.712 136.468C209.645 136.394 209.558 136.333 209.45 136.287C209.342 136.241 209.226 136.2 209.1 136.165L208.662 136.04C208.383 135.96 208.162 135.845 208 135.697C207.837 135.548 207.756 135.354 207.756 135.113C207.756 134.914 207.81 134.739 207.918 134.591C208.027 134.441 208.173 134.325 208.357 134.243C208.541 134.159 208.747 134.117 208.975 134.117C209.205 134.117 209.409 134.158 209.588 134.241C209.767 134.322 209.908 134.434 210.013 134.575C210.119 134.717 210.174 134.878 210.18 135.058H209.762Z" fill="#FCFFFF"/>
<path d="M245.127 246.17H211.474C209.829 246.17 208.484 244.84 208.484 243.181V209.528C208.484 207.883 209.814 206.538 211.474 206.538H245.127C246.772 206.538 248.116 207.868 248.116 209.528V243.181C248.116 244.84 246.772 246.17 245.127 246.17Z" fill="#EFEFEF"/>
<path d="M243.211 251.347H213.59C213.133 251.347 212.761 250.975 212.761 250.518C212.761 250.06 213.133 249.688 213.59 249.688H243.211C243.668 249.688 244.04 250.06 244.04 250.518C244.04 250.975 243.668 251.347 243.211 251.347Z" fill="#EFEFEF"/>
<path d="M242.809 261.488H213.733C211.63 261.488 209.914 259.772 209.914 257.67C209.914 255.567 211.63 253.851 213.733 253.851H242.809C244.912 253.851 246.628 255.567 246.628 257.67C246.614 259.772 244.897 261.488 242.809 261.488Z" fill="#54A0FF"/>
<path d="M208.957 215.005C212.117 215.005 214.678 212.443 214.678 209.284C214.678 206.124 212.117 203.563 208.957 203.563C205.798 203.563 203.236 206.124 203.236 209.284C203.236 212.443 205.798 215.005 208.957 215.005Z" fill="#54A0FF"/>
<path d="M208.801 209.927V205.469H209.086V209.927H208.801ZM209.762 206.806C209.741 206.63 209.657 206.493 209.508 206.395C209.359 206.298 209.177 206.249 208.961 206.249C208.803 206.249 208.665 206.275 208.547 206.326C208.429 206.377 208.338 206.447 208.272 206.536C208.206 206.626 208.174 206.727 208.174 206.841C208.174 206.936 208.197 207.018 208.242 207.087C208.288 207.154 208.348 207.21 208.42 207.256C208.492 207.3 208.567 207.336 208.646 207.365C208.725 207.393 208.797 207.416 208.864 207.433L209.226 207.531C209.319 207.555 209.422 207.589 209.536 207.632C209.651 207.675 209.76 207.733 209.865 207.808C209.971 207.881 210.058 207.975 210.126 208.09C210.195 208.205 210.229 208.346 210.229 208.513C210.229 208.706 210.178 208.88 210.077 209.035C209.978 209.191 209.831 209.315 209.639 209.406C209.447 209.498 209.214 209.544 208.94 209.544C208.685 209.544 208.464 209.503 208.277 209.42C208.091 209.338 207.945 209.223 207.838 209.075C207.732 208.928 207.672 208.757 207.659 208.562H208.104C208.116 208.696 208.161 208.808 208.24 208.896C208.32 208.983 208.421 209.048 208.543 209.091C208.666 209.133 208.799 209.154 208.94 209.154C209.105 209.154 209.253 209.127 209.384 209.074C209.515 209.019 209.619 208.944 209.696 208.847C209.773 208.75 209.811 208.636 209.811 208.506C209.811 208.388 209.778 208.291 209.712 208.217C209.645 208.143 209.558 208.082 209.45 208.036C209.342 207.989 209.226 207.949 209.1 207.914L208.662 207.789C208.383 207.708 208.162 207.594 208 207.445C207.837 207.297 207.756 207.102 207.756 206.862C207.756 206.662 207.81 206.488 207.918 206.34C208.027 206.19 208.173 206.074 208.357 205.991C208.541 205.908 208.747 205.866 208.975 205.866C209.205 205.866 209.409 205.907 209.588 205.99C209.767 206.071 209.908 206.182 210.013 206.324C210.119 206.466 210.174 206.626 210.18 206.806H209.762Z" fill="#FCFFFF"/>
<path d="M305.082 174.415H271.429C269.784 174.415 268.439 173.084 268.439 171.425V137.772C268.439 136.127 269.77 134.783 271.429 134.783H305.082C306.727 134.783 308.071 136.113 308.071 137.772V171.425C308.057 173.084 306.727 174.415 305.082 174.415Z" fill="#EFEFEF"/>
<path d="M303.152 179.606H273.532C273.074 179.606 272.702 179.234 272.702 178.777C272.702 178.319 273.074 177.947 273.532 177.947H303.152C303.609 177.947 303.981 178.319 303.981 178.777C303.981 179.22 303.609 179.606 303.152 179.606Z" fill="#EFEFEF"/>
<path d="M302.751 189.747H273.674C271.572 189.747 269.855 188.031 269.855 185.928C269.855 183.826 271.572 182.11 273.674 182.11H302.751C304.853 182.11 306.569 183.826 306.569 185.928C306.569 188.031 304.853 189.747 302.751 189.747Z" fill="#54A0FF"/>
<path d="M268.91 143.265C272.07 143.265 274.631 140.703 274.631 137.544C274.631 134.384 272.07 131.823 268.91 131.823C265.751 131.823 263.189 134.384 263.189 137.544C263.189 140.703 265.751 143.265 268.91 143.265Z" fill="#54A0FF"/>
<path d="M268.75 138.178V133.72H269.036V138.178H268.75ZM269.711 135.057C269.69 134.881 269.606 134.744 269.457 134.646C269.309 134.549 269.126 134.5 268.91 134.5C268.752 134.5 268.614 134.525 268.496 134.576C268.379 134.628 268.287 134.698 268.221 134.787C268.156 134.877 268.123 134.978 268.123 135.092C268.123 135.187 268.146 135.269 268.191 135.337C268.238 135.405 268.297 135.461 268.369 135.506C268.441 135.55 268.516 135.587 268.595 135.616C268.674 135.644 268.747 135.667 268.813 135.684L269.175 135.782C269.268 135.806 269.371 135.84 269.485 135.883C269.6 135.925 269.71 135.984 269.814 136.058C269.92 136.132 270.007 136.226 270.075 136.341C270.144 136.455 270.178 136.597 270.178 136.764C270.178 136.956 270.128 137.131 270.027 137.286C269.927 137.442 269.78 137.565 269.588 137.657C269.396 137.749 269.163 137.795 268.889 137.795C268.634 137.795 268.413 137.753 268.226 137.671C268.04 137.589 267.894 137.474 267.787 137.326C267.681 137.179 267.622 137.007 267.608 136.812H268.054C268.065 136.947 268.11 137.059 268.189 137.147C268.269 137.234 268.37 137.299 268.492 137.342C268.615 137.384 268.748 137.405 268.889 137.405C269.054 137.405 269.202 137.378 269.334 137.324C269.465 137.27 269.569 137.194 269.645 137.098C269.722 137.001 269.76 136.887 269.76 136.757C269.76 136.638 269.727 136.542 269.661 136.468C269.595 136.393 269.508 136.333 269.4 136.287C269.292 136.24 269.175 136.199 269.05 136.165L268.611 136.039C268.332 135.959 268.112 135.845 267.949 135.696C267.787 135.548 267.705 135.353 267.705 135.113C267.705 134.913 267.759 134.739 267.867 134.59C267.976 134.441 268.123 134.325 268.306 134.242C268.491 134.158 268.697 134.117 268.924 134.117C269.154 134.117 269.358 134.158 269.537 134.24C269.716 134.322 269.858 134.433 269.962 134.575C270.068 134.716 270.124 134.877 270.129 135.057H269.711Z" fill="#FCFFFF"/>
<path d="M305.082 246.17H271.429C269.784 246.17 268.439 244.84 268.439 243.181V209.528C268.439 207.883 269.77 206.539 271.429 206.539H305.082C306.727 206.539 308.071 207.869 308.071 209.528V243.181C308.057 244.84 306.727 246.17 305.082 246.17Z" fill="#EFEFEF"/>
<path d="M303.152 251.348H273.532C273.074 251.348 272.702 250.976 272.702 250.518C272.702 250.06 273.074 249.688 273.532 249.688H303.152C303.609 249.688 303.981 250.06 303.981 250.518C303.981 250.976 303.609 251.348 303.152 251.348Z" fill="#EFEFEF"/>
<path d="M302.751 261.488H273.674C271.572 261.488 269.855 259.772 269.855 257.669C269.855 255.567 271.572 253.851 273.674 253.851H302.751C304.853 253.851 306.569 255.567 306.569 257.669C306.569 259.772 304.853 261.488 302.751 261.488Z" fill="#54A0FF"/>
<path d="M268.91 215.005C272.07 215.005 274.631 212.444 274.631 209.284C274.631 206.125 272.07 203.563 268.91 203.563C265.751 203.563 263.189 206.125 263.189 209.284C263.189 212.444 265.751 215.005 268.91 215.005Z" fill="#54A0FF"/>
<path d="M268.75 209.927V205.469H269.036V209.927H268.75ZM269.711 206.807C269.69 206.63 269.606 206.493 269.457 206.396C269.309 206.298 269.126 206.249 268.91 206.249C268.752 206.249 268.614 206.275 268.496 206.326C268.379 206.377 268.287 206.447 268.221 206.537C268.156 206.626 268.123 206.728 268.123 206.841C268.123 206.937 268.146 207.018 268.191 207.087C268.238 207.154 268.297 207.211 268.369 207.256C268.441 207.3 268.516 207.337 268.595 207.366C268.674 207.393 268.747 207.416 268.813 207.434L269.175 207.531C269.268 207.555 269.371 207.589 269.485 207.632C269.6 207.675 269.71 207.734 269.814 207.808C269.92 207.881 270.007 207.975 270.075 208.09C270.144 208.205 270.178 208.346 270.178 208.513C270.178 208.706 270.128 208.88 270.027 209.036C269.927 209.191 269.78 209.315 269.588 209.407C269.396 209.498 269.163 209.544 268.889 209.544C268.634 209.544 268.413 209.503 268.226 209.42C268.04 209.338 267.894 209.223 267.787 209.076C267.681 208.928 267.622 208.757 267.608 208.562H268.054C268.065 208.697 268.11 208.808 268.189 208.896C268.269 208.983 268.37 209.048 268.492 209.091C268.615 209.133 268.748 209.154 268.889 209.154C269.054 209.154 269.202 209.127 269.334 209.074C269.465 209.019 269.569 208.944 269.645 208.848C269.722 208.75 269.76 208.636 269.76 208.506C269.76 208.388 269.727 208.291 269.661 208.217C269.595 208.143 269.508 208.082 269.4 208.036C269.292 207.99 269.175 207.949 269.05 207.914L268.611 207.789C268.332 207.709 268.112 207.594 267.949 207.446C267.787 207.297 267.705 207.103 267.705 206.862C267.705 206.663 267.759 206.488 267.867 206.34C267.976 206.19 268.123 206.074 268.306 205.992C268.491 205.908 268.697 205.866 268.924 205.866C269.154 205.866 269.358 205.907 269.537 205.99C269.716 206.071 269.858 206.183 269.962 206.324C270.068 206.466 270.124 206.627 270.129 206.807H269.711Z" fill="#FCFFFF"/>
<path d="M364.308 174.416H330.669C329.024 174.416 327.68 173.085 327.68 171.426V137.773C327.68 136.128 329.01 134.784 330.669 134.784H364.322C365.967 134.784 367.311 136.114 367.311 137.773V171.426C367.297 173.085 365.967 174.416 364.308 174.416Z" fill="#EFEFEF"/>
<path d="M362.39 179.607H332.77C332.312 179.607 331.94 179.235 331.94 178.777C331.94 178.32 332.312 177.948 332.77 177.948H362.39C362.848 177.948 363.22 178.32 363.22 178.777C363.22 179.221 362.848 179.607 362.39 179.607Z" fill="#EFEFEF"/>
<path d="M361.991 189.747H332.914C330.812 189.747 329.096 188.031 329.096 185.929C329.096 183.826 330.812 182.11 332.914 182.11H361.991C364.093 182.11 365.81 183.826 365.81 185.929C365.81 188.031 364.093 189.747 361.991 189.747Z" fill="#54A0FF"/>
<path d="M328.138 143.265C331.297 143.265 333.859 140.703 333.859 137.544C333.859 134.384 331.297 131.823 328.138 131.823C324.978 131.823 322.417 134.384 322.417 137.544C322.417 140.703 324.978 143.265 328.138 143.265Z" fill="#54A0FF"/>
<path d="M327.986 138.178V133.72H328.272V138.178H327.986ZM328.948 135.057C328.927 134.881 328.842 134.744 328.693 134.646C328.545 134.549 328.363 134.5 328.147 134.5C327.989 134.5 327.851 134.525 327.732 134.576C327.615 134.628 327.523 134.698 327.457 134.787C327.392 134.877 327.36 134.978 327.36 135.092C327.36 135.187 327.382 135.269 327.427 135.337C327.474 135.405 327.533 135.461 327.605 135.506C327.677 135.55 327.753 135.587 327.831 135.616C327.91 135.644 327.983 135.667 328.049 135.684L328.411 135.782C328.504 135.806 328.608 135.84 328.721 135.883C328.836 135.925 328.946 135.984 329.05 136.058C329.156 136.132 329.243 136.226 329.312 136.341C329.38 136.455 329.414 136.597 329.414 136.764C329.414 136.956 329.364 137.131 329.263 137.286C329.163 137.442 329.017 137.565 328.824 137.657C328.633 137.749 328.4 137.795 328.126 137.795C327.87 137.795 327.649 137.753 327.462 137.671C327.277 137.589 327.13 137.474 327.023 137.326C326.918 137.179 326.858 137.007 326.844 136.812H327.29C327.301 136.947 327.347 137.059 327.426 137.147C327.506 137.234 327.607 137.299 327.729 137.342C327.852 137.384 327.984 137.405 328.126 137.405C328.291 137.405 328.439 137.378 328.57 137.324C328.701 137.27 328.805 137.194 328.882 137.098C328.958 137.001 328.996 136.887 328.996 136.757C328.996 136.638 328.963 136.542 328.897 136.468C328.831 136.393 328.744 136.333 328.636 136.287C328.528 136.24 328.411 136.199 328.286 136.165L327.847 136.039C327.569 135.959 327.348 135.845 327.185 135.696C327.023 135.548 326.942 135.353 326.942 135.113C326.942 134.913 326.996 134.739 327.104 134.59C327.213 134.441 327.359 134.325 327.542 134.242C327.727 134.158 327.933 134.117 328.161 134.117C328.39 134.117 328.595 134.158 328.774 134.24C328.952 134.322 329.094 134.433 329.198 134.575C329.304 134.716 329.36 134.877 329.366 135.057H328.948Z" fill="#FCFFFF"/>
<path d="M364.308 246.17H330.669C329.024 246.17 327.68 244.84 327.68 243.181V209.528C327.68 207.883 329.01 206.539 330.669 206.539H364.322C365.967 206.539 367.311 207.869 367.311 209.528V243.181C367.297 244.84 365.967 246.17 364.308 246.17Z" fill="#EFEFEF"/>
<path d="M362.39 251.347H332.77C332.312 251.347 331.94 250.975 331.94 250.518C331.94 250.06 332.312 249.688 332.77 249.688H362.39C362.848 249.688 363.22 250.06 363.22 250.518C363.22 250.975 362.848 251.347 362.39 251.347Z" fill="#EFEFEF"/>
<path d="M361.991 261.488H332.914C330.812 261.488 329.096 259.772 329.096 257.67C329.096 255.567 330.812 253.851 332.914 253.851H361.991C364.093 253.851 365.81 255.567 365.81 257.67C365.81 259.772 364.093 261.488 361.991 261.488Z" fill="#54A0FF"/>
<path d="M328.138 215.006C331.297 215.006 333.859 212.444 333.859 209.285C333.859 206.125 331.297 203.564 328.138 203.564C324.978 203.564 322.417 206.125 322.417 209.285C322.417 212.444 324.978 215.006 328.138 215.006Z" fill="#54A0FF"/>
<path d="M327.986 209.928V205.47H328.272V209.928H327.986ZM328.948 206.807C328.927 206.631 328.842 206.494 328.693 206.396C328.545 206.299 328.363 206.25 328.147 206.25C327.989 206.25 327.851 206.276 327.732 206.327C327.615 206.378 327.523 206.448 327.457 206.537C327.392 206.627 327.36 206.728 327.36 206.842C327.36 206.937 327.382 207.019 327.427 207.088C327.474 207.155 327.533 207.211 327.605 207.257C327.677 207.301 327.753 207.337 327.831 207.366C327.91 207.394 327.983 207.417 328.049 207.434L328.411 207.532C328.504 207.556 328.608 207.59 328.721 207.633C328.836 207.676 328.946 207.734 329.05 207.809C329.156 207.882 329.243 207.976 329.312 208.091C329.38 208.206 329.414 208.347 329.414 208.514C329.414 208.707 329.364 208.881 329.263 209.036C329.163 209.192 329.017 209.316 328.824 209.407C328.633 209.499 328.4 209.545 328.126 209.545C327.87 209.545 327.649 209.504 327.462 209.421C327.277 209.339 327.13 209.224 327.023 209.076C326.918 208.929 326.858 208.758 326.844 208.563H327.29C327.301 208.697 327.347 208.809 327.426 208.897C327.506 208.984 327.607 209.049 327.729 209.092C327.852 209.134 327.984 209.155 328.126 209.155C328.291 209.155 328.439 209.128 328.57 209.075C328.701 209.02 328.805 208.945 328.882 208.848C328.958 208.751 328.996 208.637 328.996 208.507C328.996 208.389 328.963 208.292 328.897 208.218C328.831 208.144 328.744 208.083 328.636 208.037C328.528 207.99 328.411 207.95 328.286 207.915L327.847 207.789C327.569 207.709 327.348 207.595 327.185 207.446C327.023 207.298 326.942 207.103 326.942 206.863C326.942 206.663 326.996 206.489 327.104 206.341C327.213 206.191 327.359 206.075 327.542 205.992C327.727 205.909 327.933 205.867 328.161 205.867C328.39 205.867 328.595 205.908 328.774 205.991C328.952 206.072 329.094 206.183 329.198 206.325C329.304 206.467 329.36 206.627 329.366 206.807H328.948Z" fill="#FCFFFF"/>
<path d="M419.612 174.415H385.959C384.314 174.415 382.97 173.085 382.97 171.426V137.773C382.97 136.128 384.3 134.784 385.959 134.784H419.612C421.257 134.784 422.601 136.114 422.601 137.773V171.426C422.601 173.085 421.257 174.415 419.612 174.415Z" fill="#EFEFEF"/>
<path d="M417.696 179.607H388.076C387.618 179.607 387.246 179.235 387.246 178.777C387.246 178.319 387.618 177.948 388.076 177.948H417.696C418.153 177.948 418.525 178.319 418.525 178.777C418.525 179.22 418.153 179.607 417.696 179.607Z" fill="#EFEFEF"/>
<path d="M417.296 189.747H388.219C386.117 189.747 384.4 188.031 384.4 185.929C384.4 183.826 386.117 182.11 388.219 182.11H417.296C419.398 182.11 421.114 183.826 421.114 185.929C421.1 188.031 419.384 189.747 417.296 189.747Z" fill="#54A0FF"/>
<path d="M383.442 143.265C386.601 143.265 389.163 140.704 389.163 137.544C389.163 134.385 386.601 131.823 383.442 131.823C380.282 131.823 377.721 134.385 377.721 137.544C377.721 140.704 380.282 143.265 383.442 143.265Z" fill="#54A0FF"/>
<path d="M383.285 138.178V133.72H383.571V138.178H383.285ZM384.247 135.057C384.226 134.881 384.141 134.744 383.992 134.646C383.844 134.549 383.661 134.5 383.445 134.5C383.288 134.5 383.149 134.526 383.031 134.577C382.914 134.628 382.822 134.698 382.756 134.787C382.691 134.877 382.658 134.978 382.658 135.092C382.658 135.187 382.681 135.269 382.726 135.338C382.773 135.405 382.832 135.461 382.904 135.507C382.976 135.551 383.051 135.587 383.13 135.616C383.209 135.644 383.282 135.667 383.348 135.684L383.71 135.782C383.803 135.806 383.906 135.84 384.02 135.883C384.135 135.926 384.245 135.984 384.349 136.059C384.455 136.132 384.542 136.226 384.611 136.341C384.679 136.456 384.713 136.597 384.713 136.764C384.713 136.957 384.663 137.131 384.562 137.286C384.462 137.442 384.316 137.566 384.123 137.657C383.931 137.749 383.699 137.795 383.425 137.795C383.169 137.795 382.948 137.754 382.761 137.671C382.575 137.589 382.429 137.474 382.322 137.326C382.217 137.179 382.157 137.008 382.143 136.813H382.589C382.6 136.947 382.646 137.059 382.725 137.147C382.805 137.234 382.906 137.299 383.028 137.342C383.151 137.384 383.283 137.405 383.425 137.405C383.589 137.405 383.737 137.378 383.869 137.325C384 137.27 384.104 137.195 384.18 137.098C384.257 137.001 384.295 136.887 384.295 136.757C384.295 136.639 384.262 136.542 384.196 136.468C384.13 136.394 384.043 136.333 383.935 136.287C383.827 136.24 383.71 136.2 383.585 136.165L383.146 136.039C382.867 135.959 382.647 135.845 382.484 135.696C382.322 135.548 382.24 135.353 382.24 135.113C382.24 134.913 382.294 134.739 382.402 134.591C382.511 134.441 382.658 134.325 382.841 134.242C383.026 134.159 383.232 134.117 383.459 134.117C383.689 134.117 383.894 134.158 384.072 134.241C384.251 134.322 384.393 134.433 384.497 134.575C384.603 134.717 384.659 134.877 384.664 135.057H384.247Z" fill="#FCFFFF"/>
<path d="M419.612 246.17H385.959C384.314 246.17 382.97 244.84 382.97 243.181V209.528C382.97 207.883 384.3 206.539 385.959 206.539H419.612C421.257 206.539 422.601 207.869 422.601 209.528V243.181C422.601 244.84 421.257 246.17 419.612 246.17Z" fill="#EFEFEF"/>
<path d="M417.696 251.347H388.076C387.618 251.347 387.246 250.975 387.246 250.518C387.246 250.06 387.618 249.688 388.076 249.688H417.696C418.153 249.688 418.525 250.06 418.525 250.518C418.525 250.975 418.153 251.347 417.696 251.347Z" fill="#EFEFEF"/>
<path d="M417.296 261.488H388.219C386.117 261.488 384.4 259.772 384.4 257.669C384.4 255.567 386.117 253.851 388.219 253.851H417.296C419.398 253.851 421.114 255.567 421.114 257.669C421.1 259.772 419.384 261.488 417.296 261.488Z" fill="#54A0FF"/>
<path d="M383.442 215.005C386.601 215.005 389.163 212.444 389.163 209.284C389.163 206.125 386.601 203.563 383.442 203.563C380.282 203.563 377.721 206.125 377.721 209.284C377.721 212.444 380.282 215.005 383.442 215.005Z" fill="#54A0FF"/>
<path d="M383.285 209.927V205.469H383.571V209.927H383.285ZM384.247 206.807C384.226 206.63 384.141 206.493 383.992 206.396C383.844 206.298 383.661 206.25 383.445 206.25C383.288 206.25 383.149 206.275 383.031 206.326C382.914 206.377 382.822 206.448 382.756 206.537C382.691 206.626 382.658 206.728 382.658 206.842C382.658 206.937 382.681 207.019 382.726 207.087C382.773 207.155 382.832 207.211 382.904 207.256C382.976 207.3 383.051 207.337 383.13 207.366C383.209 207.394 383.282 207.416 383.348 207.434L383.71 207.531C383.803 207.556 383.906 207.589 384.02 207.632C384.135 207.675 384.245 207.734 384.349 207.808C384.455 207.881 384.542 207.975 384.611 208.09C384.679 208.205 384.713 208.346 384.713 208.513C384.713 208.706 384.663 208.88 384.562 209.036C384.462 209.191 384.316 209.315 384.123 209.407C383.931 209.499 383.699 209.544 383.425 209.544C383.169 209.544 382.948 209.503 382.761 209.421C382.575 209.338 382.429 209.223 382.322 209.076C382.217 208.928 382.157 208.757 382.143 208.562H382.589C382.6 208.697 382.646 208.808 382.725 208.897C382.805 208.984 382.906 209.049 383.028 209.092C383.151 209.133 383.283 209.154 383.425 209.154C383.589 209.154 383.737 209.128 383.869 209.074C384 209.02 384.104 208.944 384.18 208.848C384.257 208.75 384.295 208.637 384.295 208.506C384.295 208.388 384.262 208.292 384.196 208.217C384.13 208.143 384.043 208.083 383.935 208.036C383.827 207.99 383.71 207.949 383.585 207.914L383.146 207.789C382.867 207.709 382.647 207.595 382.484 207.446C382.322 207.297 382.24 207.103 382.24 206.863C382.24 206.663 382.294 206.489 382.402 206.34C382.511 206.19 382.658 206.074 382.841 205.992C383.026 205.908 383.232 205.866 383.459 205.866C383.689 205.866 383.894 205.908 384.072 205.99C384.251 206.071 384.393 206.183 384.497 206.324C384.603 206.466 384.659 206.627 384.664 206.807H384.247Z" fill="#FCFFFF"/>
<path d="M335.318 381.155H235.202C231.655 381.155 228.766 378.266 228.766 374.719C228.766 371.172 231.655 368.283 235.202 368.283H335.318C338.85 368.283 341.754 371.172 341.754 374.719C341.754 378.266 338.865 381.155 335.318 381.155Z" fill="#B2C8D8"/>
<path opacity="0.3" d="M285.259 323.946C291.183 323.946 295.986 319.143 295.986 313.219C295.986 307.295 291.183 302.492 285.259 302.492C279.335 302.492 274.532 307.295 274.532 313.219C274.532 319.143 279.335 323.946 285.259 323.946Z" fill="#FFFFFD"/>
<path d="M136.015 110.126L88.6318 155.98L468 156.437L436.363 110.126H136.015Z" fill="#2776B7"/>
<mask id="mask15_312_5951" style="mask-type:luminance" maskUnits="userSpaceOnUse" x="88" y="110" width="380" height="47">
<path d="M136.015 110.127L88.6318 155.98L468 156.438L436.363 110.127H136.015Z" fill="white"/>
</mask>
<g mask="url(#mask15_312_5951)">
<path d="M117.336 156.495L154.951 109.111L177.148 109.884L146.527 156.495H117.336Z" fill="#34A1EA"/>
</g>
<mask id="mask16_312_5951" style="mask-type:luminance" maskUnits="userSpaceOnUse" x="88" y="110" width="380" height="47">
<path d="M136.015 110.127L88.6318 155.98L468 156.438L436.363 110.127H136.015Z" fill="white"/>
</mask>
<g mask="url(#mask16_312_5951)">
<path d="M175.519 156.495L197.559 107.581L219.498 109.111L204.724 156.495H175.519Z" fill="#34A1EA"/>
</g>
<mask id="mask17_312_5951" style="mask-type:luminance" maskUnits="userSpaceOnUse" x="88" y="110" width="380" height="47">
<path d="M136.015 110.127L88.6318 155.98L468 156.438L436.363 110.127H136.015Z" fill="white"/>
</mask>
<g mask="url(#mask17_312_5951)">
<path d="M234.729 156.495L246.042 108.082L267.481 108.597L263.934 156.495H234.729Z" fill="#34A1EA"/>
</g>
<mask id="mask18_312_5951" style="mask-type:luminance" maskUnits="userSpaceOnUse" x="88" y="110" width="380" height="47">
<path d="M136.015 110.127L88.6318 155.98L468 156.438L436.363 110.127H136.015Z" fill="white"/>
</mask>
<g mask="url(#mask18_312_5951)">
<path d="M322.359 155.994L311.046 107.581L289.606 108.081L293.153 155.994H322.359Z" fill="#34A1EA"/>
</g>
<mask id="mask19_312_5951" style="mask-type:luminance" maskUnits="userSpaceOnUse" x="88" y="110" width="380" height="47">
<path d="M136.015 110.127L88.6318 155.98L468 156.438L436.363 110.127H136.015Z" fill="white"/>
</mask>
<g mask="url(#mask19_312_5951)">
<path d="M438.48 155.994L405.813 108.081L383.859 107.581L409.275 155.994H438.48Z" fill="#34A1EA"/>
</g>
<mask id="mask20_312_5951" style="mask-type:luminance" maskUnits="userSpaceOnUse" x="88" y="110" width="380" height="47">
<path d="M136.015 110.127L88.6318 155.98L468 156.438L436.363 110.127H136.015Z" fill="white"/>
</mask>
<g mask="url(#mask20_312_5951)">
<path d="M380.284 155.994L358.259 107.066L336.305 108.596L351.093 155.994H380.284Z" fill="#34A1EA"/>
</g>
<path d="M117.98 155.98C117.98 164.089 111.401 170.654 103.306 170.654C95.1966 170.654 88.6318 164.075 88.6318 155.98H117.98Z" fill="#2A81BC"/>
<path d="M147.184 155.98C147.184 164.089 140.605 170.654 132.51 170.654C124.415 170.654 117.836 164.075 117.836 155.98H147.184Z" fill="#37ADEF"/>
<path d="M176.376 155.98C176.376 164.089 169.797 170.654 161.701 170.654C153.592 170.654 147.027 164.075 147.027 155.98H176.376Z" fill="#2A81BC"/>
<path d="M205.583 155.98C205.583 164.089 199.004 170.654 190.909 170.654C182.813 170.654 176.234 164.075 176.234 155.98H205.583Z" fill="#37ADEF"/>
<path d="M234.773 155.98C234.773 164.089 228.194 170.654 220.099 170.654C211.99 170.654 205.425 164.075 205.425 155.98H234.773Z" fill="#2A81BC"/>
<path d="M263.978 155.98C263.978 164.089 257.399 170.654 249.304 170.654C241.209 170.654 234.63 164.075 234.63 155.98H263.978Z" fill="#37ADEF"/>
<path d="M293.17 155.98C293.17 164.089 286.591 170.654 278.495 170.654C270.386 170.654 263.821 164.075 263.821 155.98H293.17Z" fill="#2A81BC"/>
<path d="M322.374 155.98C322.374 164.089 315.795 170.654 307.699 170.654C299.59 170.654 293.025 164.075 293.025 155.98H322.374Z" fill="#37ADEF"/>
<path d="M351.58 155.98C351.58 164.089 345.001 170.654 336.906 170.654C328.811 170.654 322.231 164.075 322.231 155.98H351.58Z" fill="#2A81BC"/>
<path d="M380.77 155.98C380.77 164.089 374.191 170.654 366.096 170.654C357.987 170.654 351.422 164.075 351.422 155.98H380.77Z" fill="#37ADEF"/>
<path d="M409.601 156.437C409.601 164.546 403.022 171.111 394.927 171.111C386.818 171.111 380.253 164.532 380.253 156.437H409.601Z" fill="#2A81BC"/>
<path d="M438.793 156.437C438.793 164.546 432.214 171.111 424.118 171.111C416.009 171.111 409.444 164.532 409.444 156.437H438.793Z" fill="#37ADEF"/>
<path d="M467.998 156.437C467.998 164.546 461.419 171.111 453.324 171.111C445.214 171.111 438.649 164.532 438.649 156.437H467.998Z" fill="#2A81BC"/>
<path d="M111.212 388.207C116.543 388.207 120.866 383.884 120.866 378.552C120.866 373.221 116.543 368.898 111.212 368.898C105.88 368.898 101.558 373.221 101.558 378.552C101.558 383.884 105.88 388.207 111.212 388.207Z" fill="black"/>
<path d="M117.62 378.552C117.62 382.099 114.745 384.974 111.198 384.974C107.651 384.974 104.776 382.099 104.776 378.552C104.776 375.005 107.651 372.131 111.198 372.131C114.759 372.131 117.62 375.005 117.62 378.552Z" fill="#BAD1E5"/>
<path d="M180.219 389.622C185.551 389.622 189.874 385.3 189.874 379.968C189.874 374.636 185.551 370.314 180.219 370.314C174.888 370.314 170.565 374.636 170.565 379.968C170.565 385.3 174.888 389.622 180.219 389.622Z" fill="black"/>
<path d="M86.7549 262.046L219.394 260.816L204.663 335.731L103.102 337.075L86.7549 262.046Z" stroke="black" stroke-width="2.5763" stroke-miterlimit="10"/>
<path d="M193.609 370.127C193.609 371.143 192.779 371.958 191.75 371.958L92.4346 371.343L92.2915 369.67C91.2332 357.427 99.8861 352.607 103.662 351.105C101.302 339.735 86.9711 270.898 82.5088 250.775C80.6638 242.436 75.1002 237.445 65.9897 235.929C58.8957 234.742 52.2308 236.186 52.1593 236.201L51.3584 232.597C51.6587 232.525 58.6955 230.995 66.4902 232.268C77.1454 234.012 83.9247 240.119 86.1129 249.959C90.9757 271.828 107.452 351.134 107.609 351.92L107.967 353.665L106.222 354.08C105.807 354.18 96.9684 356.469 95.9815 365.908C95.8814 366.838 96.6251 367.653 97.5548 367.667L191.778 368.254C192.794 368.282 193.609 369.112 193.609 370.127Z" fill="black"/>
<mask id="mask21_312_5951" style="mask-type:luminance" maskUnits="userSpaceOnUse" x="51" y="231" width="143" height="141">
<path d="M193.612 370.127C193.612 371.143 192.783 371.958 191.753 371.958L92.4377 371.343L92.2947 369.67C91.2363 357.427 99.8892 352.607 103.665 351.105C101.305 339.735 86.9743 270.898 82.5119 250.775C80.667 242.436 75.1034 237.445 65.9928 235.929C58.8989 234.742 52.234 236.186 52.1625 236.201L51.3616 232.597C51.6619 232.525 58.6987 230.995 66.4934 232.268C77.1486 234.012 83.9279 240.119 86.1161 249.959C90.9789 271.828 107.455 351.134 107.612 351.92L107.97 353.665L106.225 354.08C105.81 354.18 96.9716 356.469 95.9847 365.908C95.8846 366.838 96.6283 367.653 97.5579 367.667L191.781 368.254C192.797 368.282 193.612 369.112 193.612 370.127Z" fill="white"/>
</mask>
<g mask="url(#mask21_312_5951)">
<g opacity="0.12">
<path d="M104.737 350.389C102.377 339.019 88.0461 270.182 83.5838 250.059C81.7388 241.721 76.1752 236.729 67.0647 235.213C59.9707 234.026 53.3058 235.47 53.2343 235.485L52.6908 233.01C51.704 233.168 51.089 233.297 51.0032 233.311L51.8041 236.915C51.8756 236.901 58.5405 235.456 65.6344 236.643C74.745 238.159 80.3086 243.151 82.1535 251.489C86.5443 271.226 100.403 337.832 103.164 351.09C103.736 350.804 104.265 350.575 104.737 350.389Z" fill="white"/>
<path d="M100.073 357.956C102.734 355.639 105.637 354.881 105.866 354.824L107.611 354.409L107.396 353.365L107.296 353.394C107.024 353.465 103.02 354.495 100.073 357.956Z" fill="white"/>
<path d="M93.5084 370.627L93.3654 368.954C92.8219 362.675 94.8385 358.356 97.4272 355.424C94.1949 358.313 91.2915 362.975 91.9351 370.384L92.0782 372.057L193.238 372.686L193.252 371.242L93.5084 370.627Z" fill="white"/>
</g>
</g>
<path d="M109.066 261.988L120.38 337.118" stroke="black" stroke-width="2.5763" stroke-miterlimit="10"/>
<path d="M130.034 261.989L139.102 336.604" stroke="black" stroke-width="2.5763" stroke-miterlimit="10"/>
<path d="M197.067 260.187L184.552 336.661" stroke="black" stroke-width="2.5763" stroke-miterlimit="10"/>
<path d="M173.897 261.988L166.746 336.832" stroke="black" stroke-width="2.5763" stroke-miterlimit="10"/>
<path d="M90.4443 281.383H216.176" stroke="black" stroke-width="2.5763" stroke-miterlimit="10"/>
<path d="M95.5071 303.494L210.183 303.952" stroke="black" stroke-width="2.5763" stroke-miterlimit="10"/>
<path d="M152.917 261.516V337.318" stroke="black" stroke-width="2.5763" stroke-miterlimit="10"/>
<path d="M62.226 237.317H47.2086C45.2349 237.317 43.6331 235.715 43.6331 233.741C43.6331 231.767 45.2349 230.166 47.2086 230.166H62.226C64.1997 230.166 65.8016 231.767 65.8016 233.741C65.8016 235.715 64.1854 237.317 62.226 237.317Z" fill="#2A81BC"/>
<mask id="mask22_312_5951" style="mask-type:luminance" maskUnits="userSpaceOnUse" x="43" y="230" width="23" height="8">
<path d="M62.2248 237.316H47.2074C45.2337 237.316 43.6318 235.714 43.6318 233.74C43.6318 231.767 45.2337 230.165 47.2074 230.165H62.2248C64.1985 230.165 65.8004 231.767 65.8004 233.74C65.8004 235.714 64.1842 237.316 62.2248 237.316Z" fill="white"/>
</mask>
<g mask="url(#mask22_312_5951)">
<path d="M64.385 234.671H47.5655C45.3629 234.671 43.5608 232.797 43.5608 230.509C43.5608 230.308 43.5894 230.122 43.6181 229.937C42.6169 230.695 41.959 231.91 41.959 233.283C41.959 235.572 43.7611 237.445 45.9636 237.445H62.7831C64.7997 237.445 66.4588 235.872 66.7306 233.855C66.0726 234.356 65.2574 234.671 64.385 234.671Z" fill="#277BAA"/>
</g>
<path opacity="0.2" d="M114.2 378.552C114.2 380.211 112.856 381.541 111.211 381.541C109.552 381.541 108.222 380.197 108.222 378.552C108.222 376.893 109.566 375.563 111.211 375.563C112.856 375.563 114.2 376.907 114.2 378.552Z" fill="black"/>
<path d="M186.628 379.968C186.628 383.515 183.753 386.389 180.206 386.389C176.659 386.389 173.784 383.515 173.784 379.968C173.784 376.421 176.659 373.546 180.206 373.546C183.767 373.546 186.628 376.421 186.628 379.968Z" fill="#BAD1E5"/>
<path opacity="0.2" d="M183.21 379.967C183.21 381.627 181.865 382.957 180.221 382.957C178.576 382.957 177.231 381.612 177.231 379.967C177.231 378.308 178.576 376.978 180.221 376.978C181.865 376.978 183.21 378.308 183.21 379.967Z" fill="black"/>
<path d="M8.49394 141.32C8.93731 137.487 14.1005 136.6 15.8024 140.061C18.4198 137.229 23.1109 139.532 22.453 143.337C26.2288 142.579 28.6745 147.212 25.9141 149.901C29.4182 151.503 28.6745 156.695 24.8558 157.238C26.7437 160.599 23.0966 164.361 19.6783 162.559C19.235 166.392 14.0718 167.279 12.3699 163.817C9.75253 166.649 5.06139 164.347 5.7193 160.542C1.94349 161.3 -0.502174 156.666 2.25817 153.977C-1.24589 152.376 -0.502188 147.184 3.31652 146.64C1.42862 143.279 5.0757 139.518 8.49394 141.32Z" fill="#FCAF15"/>
<mask id="mask23_312_5951" style="mask-type:luminance" maskUnits="userSpaceOnUse" x="0" y="137" width="29" height="29">
<path d="M8.49394 141.32C8.93731 137.487 14.1005 136.6 15.8024 140.061C18.4198 137.229 23.1109 139.532 22.453 143.337C26.2288 142.579 28.6745 147.212 25.9141 149.901C29.4182 151.503 28.6745 156.695 24.8558 157.238C26.7437 160.599 23.0966 164.361 19.6783 162.559C19.235 166.392 14.0718 167.279 12.3699 163.817C9.75253 166.649 5.06139 164.347 5.7193 160.542C1.94349 161.3 -0.502174 156.666 2.25817 153.977C-1.24589 152.376 -0.502188 147.184 3.31652 146.64C1.42862 143.279 5.0757 139.518 8.49394 141.32Z" fill="white"/>
</mask>
<g mask="url(#mask23_312_5951)">
<path opacity="0.12" d="M27.416 150.474C30.3337 147.628 27.7592 142.736 23.7546 143.537C24.3982 139.804 20.1647 137.444 17.3472 139.518C21.0086 139.261 23.2254 143.809 20.4365 146.526C24.1408 148.228 23.3541 153.706 19.3209 154.292C21.3232 157.839 17.4616 161.815 13.8574 159.913C13.3854 163.961 7.93627 164.905 6.13419 161.243C5.93395 161.458 5.73372 161.63 5.50488 161.801C5.69081 161.787 5.87676 161.773 6.06269 161.73C5.37618 165.749 10.3391 168.194 13.0994 165.191C14.9015 168.852 20.3506 167.908 20.8226 163.861C24.4268 165.763 28.2884 161.787 26.2861 158.24C30.3193 157.653 31.1203 152.176 27.416 150.474Z" fill="white"/>
</g>
<path d="M8.86104 153.566L12.3296 145.424L13.5609 145.194L10.0923 153.336L8.86104 153.566ZM8.81265 150.128C8.46085 150.194 8.13426 150.173 7.83287 150.065C7.53008 149.95 7.26911 149.76 7.04996 149.494C6.8363 149.219 6.68796 148.88 6.60495 148.474C6.52194 148.068 6.52606 147.704 6.61732 147.38C6.71547 147.054 6.88218 146.784 7.11743 146.569C7.35269 146.354 7.64621 146.213 7.99801 146.147C8.34981 146.082 8.67711 146.106 8.9799 146.221C9.28269 146.336 9.54021 146.527 9.75246 146.794C9.96472 147.061 10.1124 147.398 10.1954 147.803C10.2784 148.209 10.275 148.577 10.1851 148.908C10.0938 149.232 9.93059 149.502 9.69534 149.717C9.45868 149.925 9.16444 150.062 8.81265 150.128ZM8.63959 149.282C8.86722 149.24 9.03103 149.113 9.131 148.901C9.22956 148.683 9.23945 148.382 9.16066 147.997C9.08187 147.612 8.9545 147.339 8.77855 147.179C8.6012 147.013 8.3987 146.951 8.17107 146.993C7.95033 147.034 7.78723 147.165 7.68177 147.384C7.5818 147.596 7.57121 147.894 7.65 148.279C7.72738 148.657 7.85475 148.929 8.0321 149.096C8.21636 149.261 8.41885 149.324 8.63959 149.282ZM14.4239 152.613C14.079 152.677 13.7524 152.656 13.4442 152.55C13.1414 152.435 12.8838 152.244 12.6716 151.977C12.4579 151.703 12.3096 151.363 12.2266 150.957C12.1436 150.551 12.1477 150.187 12.2389 149.863C12.3302 149.539 12.4935 149.269 12.7287 149.054C12.9709 148.837 13.2644 148.697 13.6093 148.632C13.968 148.565 14.2987 148.589 14.6015 148.704C14.9043 148.819 15.1618 149.01 15.3741 149.277C15.5864 149.544 15.734 149.881 15.817 150.286C15.9 150.692 15.8966 151.06 15.8067 151.391C15.7155 151.715 15.5522 151.985 15.317 152.2C15.0803 152.408 14.7826 152.546 14.4239 152.613ZM14.2509 151.767C14.4785 151.725 14.6423 151.598 14.7423 151.386C14.8408 151.168 14.8507 150.867 14.7719 150.482C14.6946 150.103 14.5672 149.831 14.3898 149.664C14.2125 149.498 14.01 149.436 13.7824 149.478C13.5616 149.519 13.3985 149.65 13.2931 149.869C13.1931 150.081 13.1825 150.379 13.2613 150.764C13.3401 151.149 13.4681 151.425 13.6455 151.591C13.8283 151.75 14.0301 151.809 14.2509 151.767Z" fill="white"/>
<path d="M28.1455 195.582C27.6592 195.582 27.1729 195.425 26.7725 195.082C25.8571 194.324 25.7427 192.965 26.5007 192.064L38.3001 177.876C39.0581 176.961 40.4169 176.846 41.3179 177.604C42.2332 178.362 42.3477 179.721 41.5896 180.622L29.7903 194.81C29.3755 195.325 28.7605 195.582 28.1455 195.582Z" fill="white"/>
<mask id="mask24_312_5951" style="mask-type:luminance" maskUnits="userSpaceOnUse" x="26" y="177" width="17" height="19">
<path d="M28.1474 195.583C27.6611 195.583 27.1749 195.426 26.7744 195.082C25.8591 194.324 25.7446 192.966 26.5027 192.065L38.302 177.877C39.0601 176.961 40.4188 176.847 41.3199 177.605C42.2352 178.363 42.3496 179.722 41.5916 180.623L29.7922 194.811C29.3775 195.326 28.7624 195.583 28.1474 195.583Z" fill="white"/>
</mask>
<g mask="url(#mask24_312_5951)">
<path opacity="0.03" d="M46.3535 184.227C38.8591 184.227 32.7664 178.134 32.7664 170.64C32.7664 163.145 38.8591 157.052 46.3535 157.052C53.8479 157.052 59.9407 163.145 59.9407 170.64C59.9407 178.134 53.8479 184.227 46.3535 184.227ZM46.3535 161.343C41.2333 161.343 37.057 165.519 37.057 170.64C37.057 175.76 41.2333 179.936 46.3535 179.936C51.4737 179.936 55.65 175.76 55.65 170.64C55.65 165.519 51.488 161.343 46.3535 161.343Z" fill="black"/>
</g>
<path d="M37.2417 188.704L31.7925 194.925C30.3909 196.527 27.9309 196.684 26.3434 195.283C24.7415 193.881 24.5842 191.421 25.9858 189.834L31.435 183.612L37.2417 188.704Z" fill="white"/>
<mask id="mask25_312_5951" style="mask-type:luminance" maskUnits="userSpaceOnUse" x="25" y="183" width="13" height="14">
<path d="M37.2429 188.704L31.7938 194.926C30.3921 196.527 27.9322 196.685 26.3446 195.283C24.7427 193.882 24.5854 191.422 25.987 189.834L31.4362 183.613L37.2429 188.704Z" fill="white"/>
</mask>
<g mask="url(#mask25_312_5951)">
<path opacity="0.03" d="M36.7703 187.073L31.1782 193.466C29.5334 195.34 26.6729 195.526 24.7993 193.895C24.4847 193.624 24.2272 193.295 24.0127 192.966C24.0842 194.139 24.5848 195.283 25.5431 196.127C27.4166 197.771 30.2914 197.571 31.9219 195.698L38.3007 188.418L36.7703 187.073Z" fill="#010102"/>
</g>
<path d="M46.9834 183.426C39.489 183.426 33.3962 177.333 33.3962 169.839C33.3962 162.344 39.489 156.251 46.9834 156.251C54.4778 156.251 60.5706 162.344 60.5706 169.839C60.5706 177.333 54.4778 183.426 46.9834 183.426ZM46.9834 160.542C41.8632 160.542 37.6869 164.718 37.6869 169.839C37.6869 174.959 41.8632 179.135 46.9834 179.135C52.1036 179.135 56.2799 174.959 56.2799 169.839C56.2799 164.718 52.1036 160.542 46.9834 160.542Z" fill="white"/>
<mask id="mask26_312_5951" style="mask-type:luminance" maskUnits="userSpaceOnUse" x="33" y="156" width="28" height="28">
<path d="M46.9837 183.426C39.4893 183.426 33.3965 177.333 33.3965 169.839C33.3965 162.344 39.4893 156.251 46.9837 156.251C54.478 156.251 60.5708 162.344 60.5708 169.839C60.5708 177.333 54.478 183.426 46.9837 183.426ZM46.9837 160.542C41.8634 160.542 37.6872 164.718 37.6872 169.839C37.6872 174.959 41.8634 179.135 46.9837 179.135C52.1039 179.135 56.2801 174.959 56.2801 169.839C56.2801 164.718 52.1039 160.542 46.9837 160.542Z" fill="white"/>
</mask>
<g mask="url(#mask26_312_5951)">
<g opacity="0.04">
<path d="M35.7852 169.367C35.7852 173.514 38.6742 177.047 42.6502 178.234C39.6182 176.646 37.5443 173.586 37.5443 170.082C37.5443 164.961 41.9494 160.785 47.3557 160.785C48.3855 160.785 49.3723 160.943 50.3162 161.214C48.9146 160.485 47.3128 160.07 45.5965 160.07C40.1902 160.07 35.7852 164.232 35.7852 169.367Z" fill="black"/>
<path d="M52.1194 157.281C56.7534 159.541 59.9428 164.104 59.9428 169.367C59.9428 176.861 53.5068 182.954 45.5976 182.954C43.9242 182.954 42.3367 182.668 40.835 182.167C42.7944 183.126 45.0112 183.669 47.3568 183.669C55.266 183.669 61.702 177.576 61.702 170.082C61.7163 164.161 57.6973 159.141 52.1194 157.281Z" fill="black"/>
</g>
</g>
<path d="M394.355 329.61L405.754 380.455C406.026 381.699 405.568 382.986 404.567 383.773L394.627 391.553L394.355 329.61Z" fill="#FCAF15"/>
<path d="M388.292 338.334L344.77 338.563C341.967 338.578 339.678 336.318 339.664 333.515C339.65 330.711 341.91 328.423 344.713 328.409L388.235 328.18C391.038 328.165 393.326 330.425 393.341 333.228C393.355 336.046 391.095 338.32 388.292 338.334Z" fill="#FF7C10"/>
<path d="M392.512 391.782L340.051 391.153C336.647 391.11 333.987 388.206 334.258 384.817L338.478 331.255C338.563 330.125 339.493 329.252 340.623 329.252L392.569 329.138C393.713 329.138 394.657 330.025 394.728 331.169L398.447 385.518C398.69 388.921 395.944 391.825 392.512 391.782Z" fill="#FF9F43"/>
<mask id="mask27_312_5951" style="mask-type:luminance" maskUnits="userSpaceOnUse" x="334" y="329" width="65" height="63">
<path d="M392.512 391.781L340.051 391.152C336.647 391.109 333.987 388.206 334.258 384.816L338.478 331.254C338.563 330.124 339.493 329.252 340.623 329.252L392.569 329.137C393.713 329.137 394.657 330.024 394.728 331.168L398.447 385.517C398.69 388.921 395.944 391.824 392.512 391.781Z" fill="white"/>
</mask>
<g mask="url(#mask27_312_5951)">
<g opacity="0.3">
<path opacity="0.4" d="M397.646 329.896C401.279 329.367 390.238 324.533 387.592 324.533H387.42C386.204 324.533 385.246 325.577 385.375 326.792L385.647 329.71C388.707 361.862 363.221 389.565 330.926 389.179C329.882 389.165 328.995 389.937 328.852 390.981C328.466 394.027 330.812 396.731 333.872 396.759L393.499 397.474C396.545 397.517 398.948 394.9 398.662 391.868L397.646 329.896Z" fill="white"/>
</g>
</g>
<path d="M354.209 339.393C353.766 325.076 353.222 312.104 366.666 312.118C379.496 312.132 380.768 324.075 380.239 339.564" stroke="#212121" stroke-width="0.9542" stroke-miterlimit="10" stroke-linecap="round" stroke-linejoin="round"/>
<path d="M356.024 341.266C356.01 342.282 355.18 343.097 354.151 343.083C353.135 343.068 352.32 342.239 352.334 341.209C352.348 340.194 353.178 339.378 354.208 339.393C355.223 339.407 356.038 340.237 356.024 341.266Z" fill="#FF7C10"/>
<path d="M382.042 341.438C382.027 342.453 381.198 343.268 380.168 343.254C379.153 343.24 378.337 342.41 378.352 341.381C378.366 340.365 379.196 339.55 380.225 339.564C381.241 339.578 382.056 340.422 382.042 341.438Z" fill="#FF7C10"/>
<path d="M436.176 314.092L451.036 377.237C451.393 378.781 450.836 380.383 449.606 381.384L437.32 391.21L436.176 314.092Z" fill="#FCAF15"/>
<path d="M428.726 325.033L374.549 325.906C371.059 325.963 368.184 323.174 368.127 319.684C368.07 316.195 370.859 313.32 374.348 313.263L428.525 312.39C432.015 312.333 434.89 315.122 434.947 318.612C435.004 322.101 432.215 324.976 428.726 325.033Z" fill="#FCAF15"/>
<path d="M434.704 391.509L369.385 391.438C365.152 391.438 361.805 387.848 362.091 383.614L366.625 316.866C366.711 315.464 367.869 314.363 369.271 314.348L433.932 313.505C435.348 313.49 436.549 314.577 436.649 315.993L442.012 383.614C442.356 387.876 438.98 391.523 434.704 391.509Z" fill="#FECA57"/>
<mask id="mask28_312_5951" style="mask-type:luminance" maskUnits="userSpaceOnUse" x="362" y="313" width="81" height="79">
<path d="M434.705 391.509L369.386 391.437C365.153 391.437 361.806 387.848 362.092 383.614L366.626 316.865C366.712 315.464 367.87 314.362 369.272 314.348L433.933 313.504C435.349 313.49 436.55 314.577 436.65 315.993L442.013 383.614C442.357 387.876 438.981 391.523 434.705 391.509Z" fill="white"/>
</mask>
<g mask="url(#mask28_312_5951)">
<g opacity="0.3">
<path opacity="0.4" d="M440.254 314.405C444.773 313.69 430.943 307.841 427.668 307.869H427.453C425.937 307.884 424.764 309.199 424.922 310.701L425.308 314.32C429.556 354.309 398.191 389.149 357.973 389.092C356.671 389.092 355.57 390.064 355.427 391.352C354.983 395.142 357.944 398.474 361.763 398.488L436.006 398.574C439.796 398.574 442.757 395.285 442.356 391.523L440.254 314.405Z" fill="white"/>
</g>
</g>
<path d="M386.306 326.807C385.562 308.986 384.704 292.839 401.438 292.682C417.414 292.524 419.158 307.384 418.701 326.678" stroke="#212121" stroke-width="1.188" stroke-miterlimit="10" stroke-linecap="round" stroke-linejoin="round"/>
<path d="M388.607 329.11C388.607 330.383 387.577 331.413 386.304 331.399C385.031 331.399 384.001 330.369 384.016 329.096C384.03 327.823 385.046 326.793 386.318 326.808C387.577 326.808 388.607 327.837 388.607 329.11Z" fill="#FCAF15"/>
<path d="M421.002 328.981C421.002 330.254 419.973 331.283 418.7 331.269C417.427 331.269 416.397 330.239 416.411 328.966C416.411 327.694 417.441 326.664 418.714 326.678C419.973 326.678 421.002 327.708 421.002 328.981Z" fill="#FCAF15"/>
<path d="M33.0231 311.375C32.0649 320.028 24.5133 326.163 16.1464 325.091C7.7796 324.018 1.78693 316.138 2.73089 307.499C3.68914 298.846 11.2407 292.71 19.6076 293.783C23.7838 294.312 27.3737 296.558 29.8051 299.747C32.2365 302.922 33.4951 307.056 33.0231 311.375Z" fill="#54A0FF"/>
<path d="M14.6797 308.98L14.8349 308.509C14.9423 308.183 15.107 307.908 15.3292 307.684C15.5552 307.458 15.8238 307.308 16.1349 307.235C16.4498 307.16 16.7924 307.187 17.1626 307.316C17.5386 307.447 17.8265 307.64 18.0264 307.895C18.2272 308.147 18.3477 308.432 18.3877 308.751C18.4288 309.067 18.3956 309.387 18.2883 309.713L18.133 310.185C18.0256 310.51 17.8604 310.787 17.6373 311.014C17.418 311.239 17.1523 311.39 16.8403 311.466C16.5321 311.54 16.1929 311.512 15.8227 311.383C15.4467 311.252 15.1569 311.06 14.9531 310.808C14.7503 310.552 14.627 310.266 14.5831 309.949C14.5401 309.629 14.5723 309.306 14.6797 308.98ZM15.72 308.818L15.5647 309.289C15.4756 309.56 15.4592 309.825 15.5155 310.084C15.5728 310.341 15.7576 310.524 16.07 310.633C16.3737 310.739 16.6227 310.707 16.817 310.538C17.0152 310.367 17.1588 310.147 17.248 309.876L17.4032 309.405C17.4924 309.134 17.5112 308.871 17.4597 308.617C17.4091 308.359 17.2277 308.176 16.9153 308.067C16.6116 307.961 16.3578 307.992 16.1538 308.161C15.9537 308.328 15.8091 308.547 15.72 308.818ZM11.9395 302.323L12.0947 301.852C12.2021 301.526 12.3668 301.251 12.589 301.027C12.815 300.8 13.0836 300.651 13.3947 300.578C13.7096 300.503 14.0522 300.53 14.4224 300.659C14.7983 300.79 15.0863 300.983 15.2862 301.237C15.487 301.489 15.6075 301.774 15.6475 302.093C15.6885 302.409 15.6554 302.73 15.548 303.056L15.3928 303.527C15.2854 303.853 15.1202 304.129 14.8971 304.356C14.6778 304.582 14.4121 304.732 14.1001 304.808C13.7919 304.882 13.4527 304.855 13.0825 304.726C12.7065 304.595 12.4166 304.403 12.2129 304.15C12.0101 303.895 11.8868 303.608 11.8429 303.291C11.7999 302.972 11.8321 302.649 11.9395 302.323ZM12.9797 302.16L12.8245 302.631C12.7354 302.902 12.719 303.167 12.7753 303.427C12.8326 303.684 13.0174 303.866 13.3298 303.975C13.6335 304.081 13.8825 304.05 14.0768 303.881C14.275 303.71 14.4186 303.489 14.5078 303.218L14.663 302.747C14.7522 302.477 14.771 302.214 14.7195 301.959C14.6689 301.702 14.4874 301.518 14.1751 301.409C13.8714 301.303 13.6176 301.335 13.4136 301.504C13.2135 301.671 13.0689 301.89 12.9797 302.16ZM10.0323 309.228L19.0849 302.421L20.074 302.766L11.0214 309.573L10.0323 309.228Z" fill="white"/>
<path d="M49.6835 267.566C51.7144 276.019 46.6943 284.371 38.4704 286.202C30.2466 288.033 21.9227 282.655 19.8775 274.202C17.8465 265.75 22.8667 257.397 31.0905 255.567C35.2096 254.651 39.3429 255.538 42.7039 257.712C46.0793 259.886 48.668 263.347 49.6835 267.566Z" fill="#54A0FF"/>
<path d="M32.7394 270.839L30.9039 263.213L32.2032 262.924L34.0387 270.55L32.7394 270.839ZM28.7988 268.38L28.4873 267.086L36.1439 265.383L36.4554 266.677L28.7988 268.38Z" fill="white"/>
<path d="M87.0719 109.769C91.6915 117.149 89.5748 126.646 82.3522 130.994C75.1295 135.342 65.5326 132.882 60.913 125.502C56.2934 118.122 58.4101 108.625 65.6328 104.277C69.2513 102.103 73.4561 101.631 77.332 102.618C81.208 103.619 84.7549 106.079 87.0719 109.769Z" fill="#54A0FF"/>
<path d="M72.2218 113.402L72.1381 114.403L66.4767 116.363L66.4735 115.392L72.2218 113.402ZM72.1065 115.386L72.0228 116.387L67.1082 118.089L67.105 117.118L72.1065 115.386ZM72.3939 110.717L72.3055 111.759C72.0592 111.656 71.8112 111.58 71.5615 111.53C71.3118 111.48 71.0619 111.462 70.812 111.474C70.562 111.486 70.3125 111.535 70.0636 111.621C69.5716 111.791 69.1782 112.08 68.8835 112.487C68.5888 112.893 68.4234 113.399 68.3874 114.005C68.3513 114.611 68.4733 115.296 68.7532 116.061C69.0332 116.826 69.3838 117.433 69.8051 117.88C70.2263 118.327 70.6832 118.618 71.1758 118.752C71.6684 118.886 72.1607 118.868 72.6527 118.697C72.9074 118.609 73.1356 118.493 73.3371 118.348C73.5416 118.203 73.7211 118.039 73.8759 117.856C74.0335 117.671 74.1699 117.478 74.2852 117.276L75.0477 118.023C74.848 118.413 74.5709 118.752 74.2165 119.04C73.861 119.326 73.4618 119.545 73.019 119.698C72.307 119.945 71.6086 119.979 70.924 119.801C70.2422 119.623 69.6209 119.248 69.0599 118.677C68.5018 118.106 68.0523 117.354 67.7113 116.422C67.3702 115.49 67.2304 114.631 67.2917 113.845C67.3559 113.058 67.5942 112.385 68.0065 111.828C68.4217 111.269 68.9854 110.866 69.6974 110.62C70.1576 110.461 70.6163 110.391 71.0736 110.411C71.5339 110.43 71.9739 110.532 72.3939 110.717Z" fill="white"/>
</svg>
